<svg id="visual" viewBox="0 0 900 600" width="900" height="600" xmlns="http://www.w3.org/2000/svg" xmlns:xlink="http://www.w3.org/1999/xlink" version="1.1"><rect x="0" y="0" width="900" height="600" fill="#FFFFFF"></rect><defs><linearGradient id="grad1_0" x1="33.3%" y1="100%" x2="100%" y2="0%"><stop offset="20%" stop-color="#ffffff" stop-opacity="1"></stop><stop offset="80%" stop-color="#ffffff" stop-opacity="1"></stop></linearGradient></defs><defs><linearGradient id="grad2_0" x1="0%" y1="100%" x2="66.7%" y2="0%"><stop offset="20%" stop-color="#ffffff" stop-opacity="1"></stop><stop offset="80%" stop-color="#ffffff" stop-opacity="1"></stop></linearGradient></defs><g transform="translate(900, 600)"><path d="M-405.6 0C-403.5 -56 -401.4 -111.9 -374.7 -155.2C-348.1 -198.5 -296.9 -229.2 -253.1 -253.1C-209.4 -277.1 -173 -294.4 -132 -318.7C-91.1 -343 -45.5 -374.3 0 -405.6L0 0Z" fill="#0f0f0f"></path></g><g transform="translate(0, 0)"><path d="M405.6 0C387.3 44.1 369 88.2 355.7 147.3C342.4 206.4 334 280.5 286.8 286.8C239.7 293.1 153.8 231.7 99.5 240.2C45.2 248.7 22.6 327.2 0 405.6L0 0Z" fill="#0f0f0f"></path></g></svg>