<?xml version="1.0" encoding="utf-8"?>
<!-- Generator: Adobe Illustrator 24.0.1, SVG Export Plug-In . SVG Version: 6.00 Build 0)  -->
<svg version="1.1" id="Layer_1" xmlns="http://www.w3.org/2000/svg" xmlns:xlink="http://www.w3.org/1999/xlink" x="0px" y="0px"
	 width="180px" height="180px" viewBox="0 0 180 180" style="enable-background:new 0 0 180 180;" xml:space="preserve">
<style type="text/css">
	.st0{fill:url(#SVGID_1_);}
	.st1{fill:#A2DFF4;}
	.st2{clip-path:url(#SVGID_4_);}
	.st3{opacity:0.8;fill:#D4F2FF;enable-background:new    ;}
	.st4{fill:url(#SVGID_5_);}
	.st5{fill:url(#SVGID_6_);}
	.st6{fill:url(#SVGID_7_);}
	.st7{fill:url(#SVGID_8_);}
	.st8{fill:url(#SVGID_9_);}
	.st9{fill:url(#SVGID_10_);}
	.st10{fill:url(#SVGID_11_);}
	.st11{fill:none;}
	.st12{fill:url(#SVGID_12_);}
	.st13{fill:url(#SVGID_13_);}
	.st14{opacity:0.8;}
	.st15{fill:#D4F2FF;}
	.st16{fill:url(#SVGID_14_);}
	.st17{fill:#256CEE;}
	.st18{clip-path:url(#SVGID_16_);}
	.st19{fill:url(#SVGID_17_);}
	.st20{fill:#FFD871;}
	.st21{fill:url(#SVGID_18_);}
	.st22{fill:url(#SVGID_19_);}
	.st23{fill:#021721;}
	.st24{fill:url(#SVGID_20_);}
	.st25{fill:url(#SVGID_21_);}
	.st26{fill:url(#SVGID_22_);}
	.st27{fill:url(#SVGID_23_);}
	.st28{fill:url(#SVGID_24_);}
	.st29{fill:url(#SVGID_25_);}
	.st30{opacity:0.25;fill:url(#SVGID_26_);enable-background:new    ;}
	.st31{fill:url(#SVGID_27_);}
	.st32{fill:url(#SVGID_28_);}
	.st33{fill:url(#SVGID_29_);}
	.st34{fill:url(#SVGID_30_);}
	.st35{fill:url(#SVGID_31_);}
	.st36{fill:url(#SVGID_32_);}
	.st37{fill:#FFFFFF;}
	.st38{fill:url(#SVGID_33_);}
	.st39{opacity:0.67;}
	.st40{fill:#FF638D;}
	.st41{clip-path:url(#SVGID_35_);}
	.st42{fill:#052452;}
	.st43{fill:#052553;}
	.st44{fill:#052554;}
	.st45{fill:#062656;}
	.st46{fill:#062657;}
	.st47{fill:#062758;}
	.st48{fill:#062759;}
	.st49{fill:#06275A;}
	.st50{fill:#06285B;}
	.st51{fill:#06285C;}
	.st52{fill:#06295D;}
	.st53{fill:#06295E;}
	.st54{fill:#062A5F;}
	.st55{fill:#062A60;}
	.st56{fill:#062B61;}
	.st57{fill:#062B62;}
	.st58{fill:#062B63;}
	.st59{fill:#062C64;}
	.st60{fill:#072C65;}
	.st61{fill:#072D66;}
	.st62{fill:#072D67;}
	.st63{fill:#072E68;}
	.st64{fill:#072E69;}
	.st65{fill:#072F6A;}
	.st66{fill:#072F6B;}
	.st67{fill:#072F6C;}
	.st68{fill:#07306D;}
	.st69{fill:#07306E;}
	.st70{fill:#07316F;}
	.st71{fill:#073170;}
	.st72{fill:#073271;}
	.st73{fill:#073272;}
	.st74{fill:#073373;}
	.st75{fill:#073374;}
	.st76{fill:#083375;}
	.st77{fill:#083476;}
	.st78{fill:#083477;}
	.st79{fill:#083578;}
	.st80{fill:#083579;}
	.st81{fill:#08367A;}
	.st82{fill:#08367B;}
	.st83{fill:#08377C;}
	.st84{fill:#08377D;}
	.st85{fill:#08377E;}
	.st86{fill:#08387F;}
	.st87{fill:#083880;}
	.st88{fill:#083981;}
	.st89{fill:#083982;}
	.st90{fill:#083A83;}
	.st91{fill:#093A84;}
	.st92{fill:#093B85;}
	.st93{fill:#093B86;}
	.st94{fill:#093B87;}
	.st95{fill:#093C88;}
	.st96{fill:#093C89;}
	.st97{fill:#093D8A;}
	.st98{fill:#093D8B;}
	.st99{fill:#093E8C;}
	.st100{fill:#093E8D;}
	.st101{fill:#093F8E;}
	.st102{fill:#093F8F;}
	.st103{fill:#093F90;}
	.st104{fill:#094091;}
	.st105{fill:#094092;}
	.st106{fill:#0A4193;}
	.st107{fill:#0A4194;}
	.st108{fill:#0A4295;}
	.st109{fill:#0A4296;}
	.st110{fill:#0A4397;}
	.st111{fill:#0A4398;}
	.st112{fill:#0A4399;}
	.st113{fill:#0A449A;}
	.st114{fill:#0A449B;}
	.st115{fill:#1BCFE1;}
	.st116{clip-path:url(#SVGID_37_);}
	.st117{fill:#FFD771;}
	.st118{fill:#FFD671;}
	.st119{fill:#FFD571;}
	.st120{fill:#FFD471;}
	.st121{fill:#FFD371;}
	.st122{fill:#FFD271;}
	.st123{fill:#FFD171;}
	.st124{fill:#FFD071;}
	.st125{fill:#FFCF71;}
	.st126{fill:#FFCE71;}
	.st127{fill:#FFCD71;}
	.st128{fill:#FFCC71;}
	.st129{fill:#FFCB71;}
	.st130{fill:#FFCA71;}
	.st131{fill:#FFC971;}
	.st132{fill:#FFC871;}
	.st133{fill:#FFC771;}
	.st134{fill:#FFC671;}
	.st135{fill:#FFC571;}
	.st136{fill:#FFC471;}
	.st137{fill:#FFC371;}
	.st138{fill:#FFC271;}
	.st139{fill:#FFC171;}
	.st140{fill:#FFC071;}
	.st141{fill:#FFBF71;}
	.st142{fill:#FFBE71;}
	.st143{fill:#FFBD71;}
	.st144{fill:#FFBC71;}
	.st145{fill:#FFBB71;}
	.st146{fill:#FFBA71;}
	.st147{fill:#FFB971;}
	.st148{fill:#FFB871;}
	.st149{fill:#FFB771;}
	.st150{fill:#FFB671;}
	.st151{fill:#FFB471;}
	.st152{fill:#FFB371;}
	.st153{fill:#FFB271;}
	.st154{fill:#FFB171;}
	.st155{fill:#FFB071;}
	.st156{fill:#FFAF71;}
	.st157{fill:#FFAE71;}
	.st158{fill:#FFAD71;}
	.st159{fill:#FFAC71;}
	.st160{fill:#FFAB71;}
	.st161{fill:#FFAA71;}
	.st162{fill:#FFA971;}
	.st163{fill:#FFA871;}
	.st164{fill:#FFA771;}
	.st165{fill:#FFA671;}
	.st166{fill:#FFA571;}
	.st167{fill:#FFA471;}
	.st168{fill:#FFA371;}
	.st169{fill:#FFA271;}
	.st170{fill:#FFA171;}
	.st171{fill:#FFA071;}
	.st172{fill:#FF9F71;}
	.st173{fill:#FF9E71;}
	.st174{fill:#FF9D71;}
	.st175{fill:#FF9C71;}
	.st176{fill:#FF9B71;}
	.st177{fill:#FF9A71;}
	.st178{fill:#FF9971;}
	.st179{fill:#FF9871;}
	.st180{fill:#FF9771;}
	.st181{fill:#FF9671;}
	.st182{fill:#FF9571;}
	.st183{fill:#FF9471;}
	.st184{fill:#FF9371;}
	.st185{fill:#FF9271;}
	.st186{fill:url(#SVGID_38_);}
	.st187{clip-path:url(#SVGID_40_);}
	.st188{fill:url(#SVGID_41_);}
	.st189{fill:url(#SVGID_42_);}
	.st190{fill:url(#SVGID_43_);}
	.st191{fill:url(#SVGID_44_);}
	.st192{fill:url(#SVGID_45_);}
	.st193{fill:url(#SVGID_46_);}
	.st194{fill:url(#SVGID_47_);}
	.st195{fill:url(#SVGID_48_);}
	.st196{fill:url(#SVGID_49_);}
	.st197{fill:url(#SVGID_50_);}
	.st198{fill:url(#SVGID_51_);}
	.st199{fill:url(#SVGID_52_);}
	.st200{fill:url(#SVGID_53_);}
	.st201{fill:url(#SVGID_54_);}
	.st202{fill:url(#SVGID_55_);}
	.st203{fill:url(#SVGID_56_);}
	.st204{fill:url(#SVGID_57_);}
	.st205{fill:url(#SVGID_58_);}
	.st206{fill:url(#SVGID_59_);}
	.st207{fill:url(#SVGID_60_);}
	.st208{fill:url(#SVGID_61_);}
	.st209{clip-path:url(#SVGID_63_);}
	.st210{fill:#FF648C;}
	.st211{fill:#FF658C;}
	.st212{fill:#FF668B;}
	.st213{fill:#FF678B;}
	.st214{fill:#FF688A;}
	.st215{fill:#FF6989;}
	.st216{fill:#FF6A89;}
	.st217{fill:#FF6B88;}
	.st218{fill:#FF6C88;}
	.st219{fill:#FF6D87;}
	.st220{fill:#FF6E86;}
	.st221{fill:#FF6F86;}
	.st222{fill:#FF7085;}
	.st223{fill:#FF7184;}
	.st224{fill:#FF7284;}
	.st225{fill:#FF7383;}
	.st226{fill:#FF7483;}
	.st227{fill:#FF7582;}
	.st228{fill:#FF7681;}
	.st229{fill:#FF7781;}
	.st230{fill:#FF7880;}
	.st231{fill:#FF7980;}
	.st232{fill:#FF7B7F;}
	.st233{fill:#FF7C7E;}
	.st234{fill:#FF7D7E;}
	.st235{fill:#FF7E7D;}
	.st236{fill:#FF7F7D;}
	.st237{fill:#FF807C;}
	.st238{fill:#FF817B;}
	.st239{fill:#FF827B;}
	.st240{fill:#FF837A;}
	.st241{fill:#FF847A;}
	.st242{fill:#FF8579;}
	.st243{fill:#FF8678;}
	.st244{fill:#FF8778;}
	.st245{fill:#FF8877;}
	.st246{fill:#FF8976;}
	.st247{fill:#FF8A76;}
	.st248{fill:#FF8B75;}
	.st249{fill:#FF8C75;}
	.st250{fill:#FF8D74;}
	.st251{fill:#FF8E73;}
	.st252{fill:#FF8F73;}
	.st253{fill:#FF9072;}
	.st254{fill:#FF9172;}
	.st255{fill:#1EE2C9;}
	.st256{fill:url(#SVGID_64_);}
	.st257{fill:url(#SVGID_65_);}
	.st258{fill:url(#SVGID_66_);}
	.st259{fill:url(#SVGID_67_);}
	.st260{fill:url(#SVGID_68_);}
	.st261{fill:url(#SVGID_69_);}
	.st262{fill:url(#SVGID_70_);}
	.st263{fill:url(#SVGID_71_);}
	.st264{fill:url(#SVGID_72_);}
	.st265{fill:url(#SVGID_73_);}
	.st266{fill:url(#SVGID_74_);}
	.st267{fill:url(#SVGID_75_);}
	.st268{fill:url(#SVGID_76_);}
	.st269{fill:url(#SVGID_77_);}
	.st270{fill:url(#SVGID_78_);}
	.st271{fill:url(#SVGID_79_);}
	.st272{fill:url(#SVGID_80_);}
	.st273{fill:url(#SVGID_81_);}
	.st274{fill:url(#SVGID_82_);}
	.st275{fill:url(#SVGID_83_);}
	.st276{fill:url(#SVGID_84_);}
	.st277{fill:url(#SVGID_85_);}
	.st278{fill:url(#SVGID_86_);}
	.st279{fill:url(#SVGID_87_);}
	.st280{fill:url(#SVGID_88_);}
	.st281{fill:url(#SVGID_89_);}
	.st282{fill:url(#SVGID_90_);}
	.st283{fill:url(#SVGID_91_);}
	.st284{fill:url(#SVGID_92_);}
	.st285{fill:url(#SVGID_93_);}
	.st286{fill:url(#SVGID_94_);}
	.st287{fill:url(#SVGID_95_);}
	.st288{fill:url(#SVGID_96_);}
	.st289{fill:url(#SVGID_97_);}
	.st290{fill:url(#SVGID_98_);}
	.st291{fill:url(#SVGID_99_);}
	.st292{fill:url(#SVGID_100_);}
	.st293{fill:url(#SVGID_101_);}
	.st294{fill:url(#SVGID_102_);}
	.st295{fill:none;stroke:#9AA3A9;stroke-width:0.42;stroke-linecap:round;stroke-miterlimit:10;}
	.st296{fill:#9AA3A9;}
	.st297{fill:#1BCEE0;}
	.st298{fill:url(#SVGID_103_);}
	.st299{fill:url(#SVGID_104_);}
	.st300{fill:url(#SVGID_105_);}
	.st301{fill:url(#SVGID_106_);}
	.st302{fill:url(#SVGID_107_);}
	.st303{fill:url(#SVGID_108_);}
	.st304{fill:url(#SVGID_109_);}
	.st305{fill:url(#SVGID_110_);}
	.st306{fill:url(#SVGID_111_);}
	.st307{fill:url(#SVGID_112_);}
	.st308{fill:url(#SVGID_113_);}
	.st309{fill:url(#SVGID_114_);}
	.st310{fill:url(#SVGID_115_);}
	.st311{fill:url(#SVGID_116_);}
	.st312{fill:url(#SVGID_117_);}
	.st313{fill:url(#SVGID_118_);}
	.st314{fill:url(#SVGID_119_);}
	.st315{fill:url(#SVGID_120_);}
	.st316{fill:url(#SVGID_121_);}
	.st317{fill:url(#SVGID_122_);}
	.st318{fill:url(#SVGID_123_);}
	.st319{fill:url(#SVGID_124_);}
	.st320{fill:url(#SVGID_125_);}
	.st321{fill:url(#SVGID_126_);}
	.st322{fill:url(#SVGID_127_);}
	.st323{fill:url(#SVGID_128_);}
	.st324{fill:url(#SVGID_129_);}
	.st325{fill:url(#SVGID_130_);}
	.st326{fill:url(#SVGID_131_);}
	.st327{fill:url(#SVGID_132_);}
	.st328{fill:url(#SVGID_133_);}
	.st329{fill:url(#SVGID_134_);}
	.st330{fill:url(#SVGID_135_);}
	.st331{fill:url(#SVGID_136_);}
	.st332{fill:url(#SVGID_137_);}
	.st333{fill:url(#SVGID_138_);}
	.st334{fill:url(#SVGID_139_);}
	.st335{fill:url(#SVGID_140_);}
	.st336{fill:url(#SVGID_141_);}
	.st337{fill:url(#SVGID_142_);}
	.st338{fill:url(#SVGID_143_);}
	.st339{fill:url(#SVGID_144_);}
	.st340{fill:url(#SVGID_145_);}
	.st341{fill:url(#SVGID_146_);}
	.st342{fill:url(#SVGID_147_);}
	.st343{fill:url(#SVGID_148_);}
	.st344{fill:url(#SVGID_149_);}
	.st345{fill:url(#SVGID_150_);}
	.st346{fill:#B17400;}
	.st347{opacity:0.25;fill:url(#SVGID_151_);enable-background:new    ;}
	.st348{opacity:0.5;fill:url(#SVGID_152_);enable-background:new    ;}
	.st349{fill:url(#SVGID_153_);}
	.st350{fill:#FF5A5A;}
	.st351{fill:#41E6D1;}
	.st352{fill:#75EDDE;}
	.st353{fill:url(#SVGID_154_);}
	.st354{fill:url(#SVGID_155_);}
	.st355{fill:#0B4BAA;}
	.st356{fill:url(#SVGID_156_);}
	.st357{fill:url(#SVGID_157_);}
	.st358{fill:url(#SVGID_160_);}
	.st359{fill-rule:evenodd;clip-rule:evenodd;fill:url(#path-2_2_);}
</style>
<path class="st346" d="M99.2,119.1c0.4,0.2,0.8,0,1-0.3c0,0,0,0,0,0l0.8-1.5v1.2l0,0v3c0,0.2,0.2,0.3,0.3,0.3c0.2,0,0.3-0.2,0.3-0.3
	l0,0v-3h0.3v3.6c0,0.2,0.1,0.3,0.3,0.3c0,0,0,0,0,0c0.2,0,0.3-0.2,0.3-0.3v-3.6h0.3v3.6c0,0.2,0.2,0.3,0.4,0.3
	c0.1,0,0.3-0.1,0.3-0.3v-3.6h0.3v2.4c0,0.2,0.2,0.3,0.3,0.3c0.2,0,0.3-0.2,0.3-0.3v-2.4l0,0v-2.9v-2.8L103,113
	c-0.8,0.1-1.5,0.7-1.8,1.5l0,0L99.2,119.1z"/>
<linearGradient id="SVGID_1_" gradientUnits="userSpaceOnUse" x1="35.2318" y1="181.4199" x2="73.3618" y2="157.0499" gradientTransform="matrix(1 0 0 -1 0 180)">
	<stop  offset="0" style="stop-color:#FFFFFF"/>
	<stop  offset="1" style="stop-color:#D4F2FF"/>
</linearGradient>
<path style="opacity:0.25;fill:url(#SVGID_1_);enable-background:new    ;" d="M42.5,32h104.1c2.5,0,4.4,2,4.4,4.4l0,0
	c0,2.5-2,4.4-4.4,4.4H42.5c-2.5,0-4.4-2-4.4-4.4l0,0C38,34,40,32,42.5,32z"/>
<linearGradient id="SVGID_4_" gradientUnits="userSpaceOnUse" x1="35.2273" y1="183.8928" x2="73.3573" y2="159.5228" gradientTransform="matrix(1 0 0 -1 0 180)">
	<stop  offset="0" style="stop-color:#D4F2FF"/>
	<stop  offset="1" style="stop-color:#A2DFF4"/>
</linearGradient>
<path style="opacity:0.5;fill:url(#SVGID_4_);enable-background:new    ;" d="M42.5,29.6h104.1c2.5,0,4.4,2,4.4,4.4v0
	c0,2.5-2,4.4-4.4,4.4H42.5c-2.5,0-4.4-2-4.4-4.4v0C38,31.6,40,29.6,42.5,29.6z"/>
<linearGradient id="SVGID_5_" gradientUnits="userSpaceOnUse" x1="35.2343" y1="182.7939" x2="73.3643" y2="158.4139" gradientTransform="matrix(1 0 0 -1 0 180)">
	<stop  offset="0" style="stop-color:#FFFFFF"/>
	<stop  offset="1" style="stop-color:#D4F2FF"/>
</linearGradient>
<path class="st4" d="M42.5,30.7h104.1c2.5,0,4.4,2,4.4,4.4l0,0c0,2.5-2,4.4-4.4,4.4H42.5c-2.5,0-4.4-2-4.4-4.4l0,0
	C38,32.7,40,30.7,42.5,30.7z"/>
<polygon class="st346" points="96.1,74.7 103.4,94 109.8,91.7 103.6,71.2 "/>
<polygon class="st350" points="100.3,85.8 96.1,74.7 103.6,71.2 107.3,83.7 "/>
<polygon class="st346" points="109.9,93.7 104.5,114.6 102,113.9 103.2,92.8 "/>
<circle class="st350" cx="99.7" cy="72.8" r="4.2"/>
<circle class="st346" cx="106.6" cy="92.9" r="3.4"/>
<polygon class="st346" points="81.1,70.4 67.2,55.1 62.1,59.4 75.3,76.3 "/>
<polygon class="st350" points="73.1,61.5 81.1,70.4 75.3,76.3 67.3,66.1 "/>
<polygon class="st346" points="61.3,57.7 59.1,37.9 61.6,37.6 67.8,56.2 "/>
<circle class="st350" cx="78.3" cy="73.5" r="4.2"/>
<circle class="st346" cx="64.6" cy="57.2" r="3.4"/>
<path class="st346" d="M93.6,72.1h-8c0.8-1.3,1.4-2.8,1.6-4.3c0.1-1.1,0.1-2.2-0.1-3.3H92c-0.2,1.1-0.2,2.3-0.1,3.4
	C92.2,69.4,92.7,70.9,93.6,72.1z"/>
<circle class="st351" cx="93.6" cy="142" r="4"/>
<path class="st351" d="M90.8,145l24.2,22.9l2.5-2.2c-3.5-10.9-9.7-19-19.9-23.2L90.8,145z"/>
<path class="st351" d="M101.1,109c-0.6-5.1-5.3-1.3-10.5-0.6s-8.8-2.2-8.1,2.9c0.6,5.1,5.3,8.8,10.5,8.1S101.8,114.1,101.1,109
	L101.1,109z"/>
<path class="st351" d="M82.6,111.9l7.1,31.5l7-3.8c2.1-12.5,5.3-27,4.4-30.6L82.6,111.9z"/>
<path class="st351" d="M93,119.4c-4.7,0.6-9.1-2.5-10.3-7.1l-0.1-0.3c0-0.1,0-0.1,0-0.2l18.5-2.9C101.8,114.1,98.2,118.8,93,119.4
	C93,119.4,93,119.4,93,119.4z"/>
<path class="st351" d="M100.3,143.7c-1.2-0.5-2.2-1.5-2.7-2.7c-0.6-1.1-0.7-2.3-0.5-3.5l-2.7,2.2l0.6,5.2l3.4,0.8L100.3,143.7z"/>
<path d="M118.8,166.1L118.8,166.1c0.6,0.6,0.6,1.5,0.1,2.1l-4.7,5.1c-0.4,0.4-1,0.5-1.4,0.1c0,0,0,0,0,0l0,0c0,0,3.4-3.2,2.4-6.6
	L118.8,166.1z"/>
<polygon points="118.8,166.1 117.1,164.3 114.5,167.3 116,168.8 "/>
<polygon points="112.8,173.4 114.5,167.3 116.3,169.1 113.3,173.5 "/>
<path class="st352" d="M76.4,142.3c1.5,1.6,4,1.8,5.6,0.3c0,0,0,0,0,0c0.3-0.3,0.6-0.7,0.8-1.1l0.4-2.8c-0.2-0.6-0.6-1.2-0.9-1.8
	c-1.5-1.7-4.1-1.8-5.7-0.3C75,138.1,74.9,140.6,76.4,142.3L76.4,142.3z"/>
<path class="st352" d="M75.4,139.9l2.6,33.2l3.3,0.1c4.7-10.4,5.6-20.6,0.8-30.6L75.4,139.9z"/>
<path class="st352" d="M96.4,110.2c0.9-5.1-2.5-2.4-7.6-3.3s-10-5-10.8,0.1c-0.7,5.1,2.8,9.9,8,10.6C90.8,118.3,95.4,115,96.4,110.2
	z"/>
<path class="st352" d="M77.8,107.6l-2.4,32.2l7.8-1.6c5.7-11.4,13-24.3,13.2-28L77.8,107.6z"/>
<path class="st352" d="M85.5,117.8c-4.7-0.8-8-5-7.7-9.8v-0.3v-0.2l18.6,2.7C95.5,115.3,90.6,118.7,85.5,117.8z"/>
<path class="st352" d="M83.3,145.3c-0.3-1.6-0.4-3.2-0.3-4.8c0.1-1.2,0.4-2.5,0.8-3.6l-2.1,1.5l-3,4.3l2,2.9L83.3,145.3z"/>
<path d="M82,174.4L82,174.4c0.1,0.9-0.5,1.6-1.3,1.6c0,0,0,0,0,0l-6.9,0.7c-0.5,0.1-1-0.3-1.1-0.9c0,0,0,0,0,0l0,0
	c0,0,4.7-0.1,6.2-3.3L82,174.4z"/>
<polygon points="82,174.4 81.9,171.9 78,172.4 78.1,174.5 "/>
<polygon points="72.7,175.8 78,172.4 78.2,175 73,176.1 "/>
<linearGradient id="SVGID_6_" gradientUnits="userSpaceOnUse" x1="83.66" y1="96.8171" x2="106.88" y2="73.5971" gradientTransform="matrix(1 0 0 -1 0 180)">
	<stop  offset="0" style="stop-color:#FF9271"/>
	<stop  offset="1" style="stop-color:#FF5A5A"/>
</linearGradient>
<polygon class="st5" points="99.4,68.6 79.5,68.6 77.8,107.6 100.8,107.6 "/>
<circle class="st346" cx="89.6" cy="57.6" r="6"/>
<circle class="st346" cx="89.6" cy="62" r="5"/>
<polygon class="st346" points="84.7,62.8 83.7,58.6 95.4,58.8 94.5,62.8 "/>
<polygon class="st350" points="75.3,76.3 78.9,81.6 79.5,68.6 "/>
<circle class="st23" cx="91.7" cy="54.2" r="6.3"/>
<path class="st346" d="M59.3,39.9L58.1,37c-0.4-1.5-0.1-3.1,0.7-4.4l1.2-1.8c0.1-0.2,0.3-0.3,0.5-0.3l0,0c0.4,0,0.7,0.4,0.7,0.8
	l0.9,8.2L59.3,39.9z"/>
<path class="st23" d="M97.5,56.6l-2.3,5.2c-0.8,1.7-2.4,2.7-4.2,2.7h-0.8c-2.2,0-4.1-1.7-4.2-3.9l-0.3-4.9L97.5,56.6z"/>
<circle class="st23" cx="88.9" cy="52.1" r="6.5"/>
<linearGradient id="SVGID_7_" gradientUnits="userSpaceOnUse" x1="71.5342" y1="139.271" x2="61.5242" y2="149.991" gradientTransform="matrix(1 0 0 -1 0 180)">
	<stop  offset="0" style="stop-color:#0B4BAA"/>
	<stop  offset="1" style="stop-color:#256CEE"/>
</linearGradient>
<circle class="st6" cx="66.3" cy="35.1" r="7.3"/>
<circle class="st355" cx="67" cy="36.1" r="4"/>
<circle class="st17" cx="66.3" cy="35.1" r="4"/>
<linearGradient id="SVGID_8_" gradientUnits="userSpaceOnUse" x1="61.51" y1="152.4771" x2="67.98" y2="146.0071" gradientTransform="matrix(1 0 0 -1 0 180)">
	<stop  offset="0" style="stop-color:#1BCFE1"/>
	<stop  offset="1" style="stop-color:#256CEE"/>
</linearGradient>
<path class="st7" d="M66.3,31.1c-1.1,0-2.1,0.4-2.8,1.2l5.7,5.7c1.6-1.6,1.5-4.1,0-5.7C68.3,31.5,67.3,31.1,66.3,31.1z"/>
<linearGradient id="SVGID_9_" gradientUnits="userSpaceOnUse" x1="65.8025" y1="109.9296" x2="115.9625" y2="59.7696" gradientTransform="matrix(1 0 0 -1 0 180)">
	<stop  offset="0" style="stop-color:#FF9271"/>
	<stop  offset="1" style="stop-color:#FF5A5A"/>
</linearGradient>
<polygon class="st8" points="99.7,78.5 78.1,100.1 77.8,107.6 100.8,107.6 "/>
<g>
	<g>
		<g>
			<path id="SVGID_2_" class="st17" d="M114.7,22.4c-3.7,0-6.7-3-6.7-6.8s3-6.8,6.7-6.8c3.7,0,6.7,3,6.7,6.8S118.4,22.4,114.7,22.4z
				 M114.7,20.6c2.7,0,4.9-2.2,4.9-5s-2.2-5-4.9-5s-4.9,2.2-4.9,5S112,20.6,114.7,20.6z"/>
		</g>
		<g>
			<g>
				<defs>
					<path id="SVGID_158_" d="M114.7,22.4c-3.7,0-6.7-3-6.7-6.8s3-6.8,6.7-6.8c3.7,0,6.7,3,6.7,6.8S118.4,22.4,114.7,22.4z
						 M114.7,20.6c2.7,0,4.9-2.2,4.9-5s-2.2-5-4.9-5s-4.9,2.2-4.9,5S112,20.6,114.7,20.6z"/>
				</defs>
				<clipPath id="SVGID_10_">
					<use xlink:href="#SVGID_158_"  style="overflow:visible;"/>
				</clipPath>
			</g>
		</g>
	</g>
	<g>
		
			<linearGradient id="SVGID_11_" gradientUnits="userSpaceOnUse" x1="122.6738" y1="-62.3647" x2="136.1428" y2="-62.3647" gradientTransform="matrix(1 0 0 1 0 78)">
			<stop  offset="0.1243" style="stop-color:#256CEE"/>
			<stop  offset="1" style="stop-color:#1BCFE1"/>
		</linearGradient>
		<path class="st10" d="M128,22.4c-0.1,0-0.1,0-0.2,0c-2.3-0.6-4.2-2.4-4.9-4.7c-0.2-0.6-0.3-1.3-0.3-1.9c0-0.6,0.1-1.3,0.3-1.9
			c0.1-0.5,0.6-0.8,1.1-0.6s0.8,0.7,0.6,1.2c-0.1,0.4-0.2,0.9-0.2,1.4c0,0.5,0.1,0.9,0.2,1.4c0.5,1.7,1.8,3,3.5,3.4
			c0.5,0.1,0.8,0.6,0.7,1.1C128.8,22.1,128.4,22.4,128,22.4z M130.8,22.4c-0.4,0-0.8-0.3-0.9-0.7c-0.1-0.5,0.2-1,0.7-1.1
			c0,0,0.1,0,0.2,0c2.1-0.6,3.5-2.6,3.5-4.8c0-0.5-0.1-0.9-0.2-1.4c-0.1-0.5,0.1-1,0.6-1.2c0.5-0.1,1,0.1,1.1,0.6l0,0
			c0.2,0.6,0.3,1.2,0.3,1.9c0,3-2,5.7-4.9,6.5c-0.1,0-0.2,0-0.2,0.1C130.9,22.3,130.9,22.4,130.8,22.4z M125.2,12.6
			c-0.2,0-0.4-0.1-0.6-0.2c-0.4-0.3-0.4-0.9,0-1.3c0.8-0.9,1.9-1.5,3-1.8c0.6-0.2,1.2-0.3,1.9-0.3c1.8,0,3.6,0.8,4.8,2.1
			c0.3,0.4,0.3,1,0,1.3c-0.4,0.4-0.9,0.3-1.3,0c-0.9-1-2.2-1.5-3.5-1.5c-0.4,0-0.9,0.1-1.4,0.2c-0.8,0.2-1.6,0.7-2.2,1.3
			C125.7,12.5,125.4,12.6,125.2,12.6z"/>
	</g>
	<g>
		<path class="st115" d="M144.1,8.9c0.9,0,1.9,0.2,2.7,0.6c0.5,0.2,0.7,0.7,0.5,1.2c-0.2,0.5-0.7,0.7-1.2,0.5
			c-0.7-0.3-1.5-0.4-2.3-0.4c-0.5,0-1,0.1-1.5,0.3c-0.5,0.2-1,0-1.2-0.5c-0.2-0.5,0-1,0.5-1.2c0.7-0.3,1.4-0.4,2.1-0.5
			C143.8,8.9,143.9,8.9,144.1,8.9z M137.4,16.1c0-0.1,0-0.3,0-0.4c0-1.7,0.6-3.2,1.7-4.5c0.2-0.2,0.4-0.3,0.7-0.3
			c0.2,0,0.4,0.1,0.6,0.2c0.4,0.3,0.4,0.9,0.1,1.3c-0.8,0.9-1.2,2.1-1.2,3.3c0,0.1,0,0.2,0,0.3c0,0.5-0.3,0.9-0.9,1
			C137.9,17,137.4,16.6,137.4,16.1 M148.5,11c0.3,0,0.5,0.1,0.7,0.3c0.9,1.1,1.4,2.5,1.5,3.9c0,0.1,0,0.3,0,0.4c0,0.2,0,0.4,0,0.6
			c0,0.5-0.5,0.9-1,0.8c-0.5,0-0.9-0.5-0.8-1c0-0.1,0-0.3,0-0.4c0-0.1,0-0.2,0-0.3c-0.1-1.1-0.4-2-1.1-2.8c-0.3-0.4-0.2-1,0.1-1.3
			C148.2,11.1,148.3,11,148.5,11z M139.1,17.8c0.3,0,0.6,0.2,0.8,0.4c0.6,1.1,1.7,2,3,2.3c0.5,0.1,0.8,0.6,0.6,1.1
			c-0.1,0.5-0.6,0.8-1.1,0.6c-1.7-0.4-3.2-1.6-4.1-3.1c-0.2-0.4-0.1-1,0.3-1.3C138.8,17.8,138.9,17.8,139.1,17.8z M149,17.9
			c0.2,0,0.3,0,0.5,0.1c0.4,0.3,0.6,0.8,0.3,1.3c-0.9,1.5-2.5,2.6-4.2,3c-0.5,0.1-1-0.2-1.1-0.7c-0.1-0.5,0.2-1,0.7-1.1
			c1.3-0.3,2.4-1.1,3-2.2C148.4,18.1,148.7,17.9,149,17.9z"/>
	</g>
</g>
<g id="brand_x2F_ico_x2F_unlimited-2.0-copy">
	<g id="Clip-2">
		
			<linearGradient id="path-2_2_" gradientUnits="userSpaceOnUse" x1="-137.0265" y1="104.3137" x2="-137.224" y2="104.2781" gradientTransform="matrix(65.0001 0 0 -28 8968.0205 2936)">
			<stop  offset="0" style="stop-color:#1BCFE1"/>
			<stop  offset="1" style="stop-color:#256CEE"/>
		</linearGradient>
		<path id="path-2_1_" class="st359" d="M44.9,9.1c-0.2,0-0.5,0-0.8,0.1l0,0c-1.4,0.2-2.9,0.9-4,1.9l0,0c-1.1,1-1.8,2.3-2,3.7l0,0
			c-0.1,0.3-0.1,0.7-0.1,1l0,0v0c0,1.8,0.8,3.5,2.1,4.7l0,0c1.3,1.3,3,1.9,4.8,1.9l0,0c1.6,0,3.1-0.6,4.4-1.6l0,0l3.1-2.9
			c0.2-0.1,0.2-0.3,0.3-0.6l0,0c0-0.2-0.1-0.4-0.2-0.6l0,0c-0.1-0.1-0.4-0.2-0.6-0.2l0,0c-0.2,0-0.4,0.1-0.6,0.2l0,0L48,19.8l0,0
			c-0.9,0.7-2,1.1-3.1,1.1l0,0c-1.3,0-2.5-0.5-3.6-1.5l0,0c-1-0.9-1.5-2-1.6-3.3l0,0c0-0.1,0-0.3,0-0.4l0,0c0-1.3,0.6-2.6,1.6-3.6
			l0,0c1.1-1,2.3-1.5,3.5-1.5l0,0h0.1c1.4,0,2.7,0.6,3.9,1.8l0,0l8.3,7.8c1,0.9,2.7,2,5.1,2.3l0,0h0.1c1.7,0,3.3-0.7,4.7-2l0,0
			c1.3-1.2,2.1-2.9,2.1-4.7l0,0c0-1.8-0.7-3.5-2.1-4.8l0,0c-1.3-1.3-3-1.9-4.8-1.9l0,0c-1.6,0-3.1,0.6-4.4,1.6l0,0
			c-0.6,0.5-1.2,1.1-1.8,1.7l0,0l-1.3,1.2c-0.2,0.1-0.3,0.3-0.3,0.6l0,0c0,0.2,0.1,0.4,0.2,0.6l0,0c0.1,0.1,0.4,0.2,0.6,0.2l0,0
			c0.3,0,0.5-0.1,0.6-0.3l0,0c0.3-0.2,0.5-0.5,0.8-0.7l0,0c0.8-0.7,1.5-1.4,2.3-2.1l0,0c1-0.8,2.1-1.2,3.2-1.2l0,0
			c1.3,0,2.5,0.5,3.6,1.5l0,0c1.1,1,1.6,2.3,1.6,3.7l0,0c0,1.3-0.6,2.6-1.6,3.6l0,0c0,0,0,0,0,0l0,0c-1.1,1-2.3,1.5-3.5,1.5l0,0
			h-0.1c-1.3,0-2.7-0.6-3.9-1.8l0,0L50,11.4c-0.7-0.6-1.4-1.1-2.1-1.5l0,0c-0.9-0.4-1.8-0.7-2.8-0.7l0,0L44.9,9.1L44.9,9.1z"/>
	</g>
</g>
</svg>
