<?xml version="1.0" encoding="utf-8"?>
<!-- Generator: Adobe Illustrator 24.0.1, SVG Export Plug-In . SVG Version: 6.00 Build 0)  -->
<svg version="1.1" id="Layer_1" xmlns="http://www.w3.org/2000/svg" xmlns:xlink="http://www.w3.org/1999/xlink" x="0px" y="0px"
	 width="180px" height="180px" viewBox="0 0 180 180" style="enable-background:new 0 0 180 180;" xml:space="preserve">
<style type="text/css">
	.st0{clip-path:url(#SVGID_2_);}
	.st1{fill:#47C684;}
	.st2{fill:url(#SVGID_3_);}
	.st3{fill:url(#SVGID_4_);}
	.st4{fill:url(#SVGID_5_);}
	.st5{clip-path:url(#SVGID_7_);}
	.st6{fill:url(#SVGID_8_);}
	.st7{fill:url(#SVGID_9_);}
	.st8{fill:url(#SVGID_10_);}
	.st9{clip-path:url(#SVGID_12_);}
	.st10{fill:#B2E7CC;}
	.st11{fill:url(#SVGID_13_);}
	.st12{fill:url(#SVGID_14_);}
	.st13{fill:url(#SVGID_15_);}
	.st14{clip-path:url(#SVGID_17_);}
	.st15{fill:url(#SVGID_18_);}
	.st16{fill:url(#SVGID_19_);}
	.st17{fill:url(#SVGID_20_);}
	.st18{clip-path:url(#SVGID_22_);}
	.st19{clip-path:url(#SVGID_24_);}
	.st20{fill:url(#SVGID_25_);}
	.st21{fill:url(#SVGID_26_);}
	.st22{fill:url(#SVGID_27_);}
	.st23{fill:url(#SVGID_28_);}
	.st24{fill:url(#SVGID_29_);}
	.st25{clip-path:url(#SVGID_31_);fill:#50C2D4;}
	.st26{clip-path:url(#SVGID_33_);fill:#50C2D4;}
	.st27{clip-path:url(#SVGID_35_);fill:#4FC1D4;}
	.st28{clip-path:url(#SVGID_37_);fill:#4FC0D5;}
	.st29{clip-path:url(#SVGID_39_);fill:#4EBFD5;}
	.st30{clip-path:url(#SVGID_41_);fill:#4EBED5;}
	.st31{clip-path:url(#SVGID_43_);fill:#4DBDD5;}
	.st32{clip-path:url(#SVGID_45_);fill:#4DBCD6;}
	.st33{clip-path:url(#SVGID_47_);fill:#4CBBD6;}
	.st34{clip-path:url(#SVGID_49_);fill:#4CBAD6;}
	.st35{clip-path:url(#SVGID_51_);fill:#4BB9D7;}
	.st36{clip-path:url(#SVGID_53_);fill:#4BB8D7;}
	.st37{clip-path:url(#SVGID_55_);fill:#4AB7D7;}
	.st38{clip-path:url(#SVGID_57_);fill:#4AB6D8;}
	.st39{clip-path:url(#SVGID_59_);fill:#49B5D8;}
	.st40{clip-path:url(#SVGID_61_);fill:#49B4D8;}
	.st41{clip-path:url(#SVGID_63_);fill:#48B3D8;}
	.st42{clip-path:url(#SVGID_65_);fill:#48B2D9;}
	.st43{clip-path:url(#SVGID_67_);fill:#47B1D9;}
	.st44{clip-path:url(#SVGID_69_);fill:#47B0D9;}
	.st45{clip-path:url(#SVGID_71_);fill:#46AFDA;}
	.st46{clip-path:url(#SVGID_73_);fill:#46AEDA;}
	.st47{clip-path:url(#SVGID_75_);fill:#45ADDA;}
	.st48{clip-path:url(#SVGID_77_);fill:#45ACDA;}
	.st49{clip-path:url(#SVGID_79_);fill:#44ABDB;}
	.st50{clip-path:url(#SVGID_81_);fill:#44AADB;}
	.st51{clip-path:url(#SVGID_83_);fill:#43A9DB;}
	.st52{clip-path:url(#SVGID_85_);fill:#43A8DC;}
	.st53{clip-path:url(#SVGID_87_);fill:#42A7DC;}
	.st54{clip-path:url(#SVGID_89_);fill:#42A6DC;}
	.st55{clip-path:url(#SVGID_91_);fill:#41A5DD;}
	.st56{clip-path:url(#SVGID_93_);fill:#41A4DD;}
	.st57{clip-path:url(#SVGID_95_);fill:#40A3DD;}
	.st58{clip-path:url(#SVGID_97_);fill:#40A2DD;}
	.st59{clip-path:url(#SVGID_99_);fill:#3FA1DE;}
	.st60{clip-path:url(#SVGID_101_);fill:#3FA0DE;}
	.st61{clip-path:url(#SVGID_103_);fill:#3E9FDE;}
	.st62{clip-path:url(#SVGID_105_);fill:#3E9EDF;}
	.st63{clip-path:url(#SVGID_107_);fill:#3D9DDF;}
	.st64{clip-path:url(#SVGID_109_);fill:#3D9CDF;}
	.st65{clip-path:url(#SVGID_111_);fill:#3C9BDF;}
	.st66{clip-path:url(#SVGID_113_);fill:#3C9AE0;}
	.st67{clip-path:url(#SVGID_115_);fill:#3B99E0;}
	.st68{clip-path:url(#SVGID_117_);fill:#3B98E0;}
	.st69{fill:url(#SVGID_118_);}
	.st70{fill:#A1DEF3;}
	.st71{fill:url(#SVGID_119_);}
	.st72{fill-rule:evenodd;clip-rule:evenodd;fill:#FFFFFF;}
	.st73{fill:url(#SVGID_120_);}
	.st74{clip-path:url(#SVGID_122_);}
	.st75{fill:url(#SVGID_123_);}
	.st76{fill:url(#SVGID_124_);}
	.st77{fill:url(#SVGID_125_);}
	.st78{fill:url(#SVGID_126_);}
	.st79{fill:url(#SVGID_127_);}
	.st80{fill:#0E42A0;}
	.st81{fill:url(#SVGID_128_);}
	.st82{fill:none;stroke:#A1DEF3;stroke-width:0.7016;stroke-miterlimit:10;}
	.st83{opacity:0.58;fill:url(#SVGID_129_);enable-background:new    ;}
	.st84{fill:url(#SVGID_130_);}
	.st85{clip-path:url(#SVGID_132_);}
	.st86{fill:url(#SVGID_133_);}
	.st87{fill:url(#SVGID_134_);}
	.st88{fill:url(#SVGID_135_);}
</style>
<g id="UNL_Savings_1_">
	<g>
		<g>
			<defs>
				<rect id="SVGID_1_" width="180" height="180"/>
			</defs>
			<clipPath id="SVGID_2_">
				<use xlink:href="#SVGID_1_"  style="overflow:visible;"/>
			</clipPath>
			<g class="st0">
				
					<rect x="110.7" y="134.9" transform="matrix(0.7401 -0.6725 0.6725 0.7401 -73.7643 121.1249)" class="st1" width="18.2" height="42.1"/>
				
					<linearGradient id="SVGID_3_" gradientUnits="userSpaceOnUse" x1="192.1047" y1="181.9376" x2="201.8344" y2="187.5549" gradientTransform="matrix(0.7401 -0.6725 -0.6725 -0.7401 98.2785 425.2495)">
					<stop  offset="0" style="stop-color:#25954A"/>
					<stop  offset="0" style="stop-color:#25954A"/>
					<stop  offset="1" style="stop-color:#2EA65C"/>
				</linearGradient>
				<circle class="st2" cx="119.8" cy="156.1" r="5.6"/>
				
					<linearGradient id="SVGID_4_" gradientUnits="userSpaceOnUse" x1="193.317" y1="172.4066" x2="197.6774" y2="172.4066" gradientTransform="matrix(0.7401 -0.6725 -0.6725 -0.7401 98.2785 425.2495)">
					<stop  offset="0" style="stop-color:#25954A"/>
					<stop  offset="0" style="stop-color:#25954A"/>
					<stop  offset="1" style="stop-color:#2EA65C"/>
				</linearGradient>
				<circle class="st3" cx="127" cy="166.2" r="2.2"/>
				
					<linearGradient id="SVGID_5_" gradientUnits="userSpaceOnUse" x1="194.8051" y1="195.6767" x2="199.1491" y2="195.2967" gradientTransform="matrix(0.7401 -0.6725 -0.6725 -0.7401 98.2785 425.2495)">
					<stop  offset="0" style="stop-color:#25954A"/>
					<stop  offset="1" style="stop-color:#2EA65C"/>
				</linearGradient>
				<circle class="st4" cx="112.6" cy="148.1" r="2.2"/>
			</g>
		</g>
		<g>
			<defs>
				<rect id="SVGID_6_" width="180" height="180"/>
			</defs>
			<clipPath id="SVGID_7_">
				<use xlink:href="#SVGID_6_"  style="overflow:visible;"/>
			</clipPath>
			<g class="st5">
				
					<rect x="142.4" y="59.5" transform="matrix(0.6646 -0.7472 0.7472 0.6646 -7.6098 138.264)" class="st1" width="15.7" height="36.3"/>
				
					<linearGradient id="SVGID_8_" gradientUnits="userSpaceOnUse" x1="278.7738" y1="216.4778" x2="287.1571" y2="221.318" gradientTransform="matrix(0.6646 -0.7472 -0.7472 -0.6646 125.7955 434.6413)">
					<stop  offset="0" style="stop-color:#25954A"/>
					<stop  offset="0" style="stop-color:#25954A"/>
					<stop  offset="1" style="stop-color:#2EA65C"/>
				</linearGradient>
				<circle class="st6" cx="150.3" cy="77.7" r="4.8"/>
				
					<linearGradient id="SVGID_9_" gradientUnits="userSpaceOnUse" x1="281.0682" y1="209.7782" x2="284.8252" y2="209.7782" gradientTransform="matrix(0.6646 -0.7472 -0.7472 -0.6646 125.7955 434.6413)">
					<stop  offset="0" style="stop-color:#25954A"/>
					<stop  offset="0" style="stop-color:#25954A"/>
					<stop  offset="1" style="stop-color:#2EA65C"/>
				</linearGradient>
				<circle class="st7" cx="157.1" cy="83.8" r="1.9"/>
				
					<linearGradient id="SVGID_10_" gradientUnits="userSpaceOnUse" x1="281.0714" y1="228.2885" x2="284.8143" y2="227.961" gradientTransform="matrix(0.6646 -0.7472 -0.7472 -0.6646 125.7955 434.6413)">
					<stop  offset="0" style="stop-color:#25954A"/>
					<stop  offset="1" style="stop-color:#2EA65C"/>
				</linearGradient>
				<circle class="st8" cx="143.4" cy="71.6" r="1.9"/>
			</g>
		</g>
		<g>
			<defs>
				<rect id="SVGID_11_" width="180" height="180"/>
			</defs>
			<clipPath id="SVGID_12_">
				<use xlink:href="#SVGID_11_"  style="overflow:visible;"/>
			</clipPath>
			<g class="st9">
				
					<rect x="132.2" y="23.2" transform="matrix(0.9992 -3.961634e-02 3.961634e-02 0.9992 -0.9968 5.7037)" class="st10" width="22.5" height="9.7"/>
				
					<linearGradient id="SVGID_13_" gradientUnits="userSpaceOnUse" x1="396.5562" y1="210.0748" x2="401.7531" y2="213.0752" gradientTransform="matrix(-3.961575e-02 -0.9992 -0.9992 3.961575e-02 370.6185 418.4536)">
					<stop  offset="0" style="stop-color:#A0CCB1"/>
					<stop  offset="1" style="stop-color:#ABDABD"/>
				</linearGradient>
				<circle class="st11" cx="143.4" cy="28" r="3"/>
				
					<linearGradient id="SVGID_14_" gradientUnits="userSpaceOnUse" x1="397.9964" y1="205.8715" x2="400.3256" y2="205.8715" gradientTransform="matrix(-3.961575e-02 -0.9992 -0.9992 3.961575e-02 370.6185 418.4536)">
					<stop  offset="0" style="stop-color:#A0CCB1"/>
					<stop  offset="1" style="stop-color:#ABDABD"/>
				</linearGradient>
				<circle class="st12" cx="149.1" cy="27.8" r="1.2"/>
				
					<linearGradient id="SVGID_15_" gradientUnits="userSpaceOnUse" x1="398" y1="217.3818" x2="400.3204" y2="217.1788" gradientTransform="matrix(-3.961575e-02 -0.9992 -0.9992 3.961575e-02 370.6185 418.4536)">
					<stop  offset="0" style="stop-color:#A0CCB1"/>
					<stop  offset="1" style="stop-color:#ABDABD"/>
				</linearGradient>
				<circle class="st13" cx="137.7" cy="28.2" r="1.2"/>
			</g>
		</g>
		<g>
			<defs>
				<rect id="SVGID_16_" width="180" height="180"/>
			</defs>
			<clipPath id="SVGID_17_">
				<use xlink:href="#SVGID_16_"  style="overflow:visible;"/>
			</clipPath>
			<g class="st14">
				
					<rect x="8.1" y="123.2" transform="matrix(0.3505 -0.9366 0.9366 0.3505 -107.3853 101.2475)" class="st10" width="22.5" height="9.7"/>
				
					<linearGradient id="SVGID_18_" gradientUnits="userSpaceOnUse" x1="297.824" y1="220.7945" x2="303.0208" y2="223.7948" gradientTransform="matrix(-0.9366 -0.3505 -0.3505 0.9366 378.5699 25.1002)">
					<stop  offset="0" style="stop-color:#A0CCB1"/>
					<stop  offset="1" style="stop-color:#ABDABD"/>
				</linearGradient>
				<circle class="st15" cx="19.3" cy="128" r="3"/>
				
					<linearGradient id="SVGID_19_" gradientUnits="userSpaceOnUse" x1="299.2344" y1="216.6199" x2="301.5636" y2="216.6199" gradientTransform="matrix(-0.9366 -0.3505 -0.3505 0.9366 378.5699 25.1002)">
					<stop  offset="0" style="stop-color:#A0CCB1"/>
					<stop  offset="1" style="stop-color:#ABDABD"/>
				</linearGradient>
				<circle class="st16" cx="21.3" cy="122.7" r="1.2"/>
				
					<linearGradient id="SVGID_20_" gradientUnits="userSpaceOnUse" x1="299.2369" y1="228.1432" x2="301.5573" y2="227.9402" gradientTransform="matrix(-0.9366 -0.3505 -0.3505 0.9366 378.5699 25.1002)">
					<stop  offset="0" style="stop-color:#A0CCB1"/>
					<stop  offset="1" style="stop-color:#ABDABD"/>
				</linearGradient>
				<circle class="st17" cx="17.3" cy="133.4" r="1.2"/>
			</g>
		</g>
		<title>plan3-illo</title>
		<g>
			<defs>
				<rect id="SVGID_21_" width="180" height="180"/>
			</defs>
			<clipPath id="SVGID_22_">
				<use xlink:href="#SVGID_21_"  style="overflow:visible;"/>
			</clipPath>
			<g id="_x34_Mu0at.tif_1_" class="st18">
			</g>
		</g>
		<g>
			<defs>
				<rect id="SVGID_23_" width="180" height="180"/>
			</defs>
			<clipPath id="SVGID_24_">
				<use xlink:href="#SVGID_23_"  style="overflow:visible;"/>
			</clipPath>
			<g class="st19">
				
					<linearGradient id="SVGID_25_" gradientUnits="userSpaceOnUse" x1="-933.426" y1="-3730.9285" x2="-933.426" y2="-3636.7507" gradientTransform="matrix(0.9945 0.1047 0.1047 -0.9945 1426.5195 -3527.3916)">
					<stop  offset="0" style="stop-color:#D05234"/>
					<stop  offset="1" style="stop-color:#9F3824"/>
				</linearGradient>
				<path class="st20" d="M112.6,70l-12.4-22.1c-0.9-1.6-0.3-3.6,1.3-4.5c1.5-0.8,3.4-0.4,4.3,1L120.5,65c1.5,2.1,1,5-1.1,6.5
					s-5,1-6.5-1.1C112.8,70.3,112.7,70.1,112.6,70z"/>
				
					<linearGradient id="SVGID_26_" gradientUnits="userSpaceOnUse" x1="-934.0737" y1="-3730.9285" x2="-934.0737" y2="-3636.7507" gradientTransform="matrix(0.9945 0.1047 0.1047 -0.9945 1426.5195 -3527.3916)">
					<stop  offset="0" style="stop-color:#D05234"/>
					<stop  offset="1" style="stop-color:#9F3824"/>
				</linearGradient>
				<path class="st21" d="M111.4,82.4L97.7,61c-1-1.5-0.5-3.6,1-4.6c1.4-0.9,3.3-0.6,4.4,0.7L119,76.9c1.6,2,1.3,4.9-0.7,6.5
					s-4.9,1.3-6.5-0.7C111.6,82.6,111.5,82.5,111.4,82.4z"/>
				
					<linearGradient id="SVGID_27_" gradientUnits="userSpaceOnUse" x1="-934.6703" y1="-3730.9285" x2="-934.6703" y2="-3636.7507" gradientTransform="matrix(0.9945 0.1047 0.1047 -0.9945 1426.5195 -3527.3916)">
					<stop  offset="0" style="stop-color:#D05234"/>
					<stop  offset="1" style="stop-color:#9F3824"/>
				</linearGradient>
				<path class="st22" d="M109.6,93.7L95.9,72.4c-1-1.5-0.5-3.6,1-4.6c1.4-0.9,3.3-0.6,4.4,0.7l15.9,19.8c1.6,2,1.3,4.9-0.7,6.5
					s-4.9,1.3-6.5-0.7C109.8,93.9,109.7,93.8,109.6,93.7z"/>
				
					<linearGradient id="SVGID_28_" gradientUnits="userSpaceOnUse" x1="-935.3348" y1="-3730.9285" x2="-935.3348" y2="-3636.7507" gradientTransform="matrix(0.9945 0.1047 0.1047 -0.9945 1426.5195 -3527.3916)">
					<stop  offset="0" style="stop-color:#D05234"/>
					<stop  offset="1" style="stop-color:#9F3824"/>
				</linearGradient>
				<path class="st23" d="M107.7,105.4L94,84.1c-1-1.5-0.5-3.6,1-4.6c1.4-0.9,3.3-0.6,4.4,0.7l15.9,19.8c1.6,2,1.3,4.9-0.7,6.5
					s-4.9,1.3-6.5-0.7C107.9,105.7,107.8,105.6,107.7,105.4z"/>
				
					<linearGradient id="SVGID_29_" gradientUnits="userSpaceOnUse" x1="-1293.2609" y1="3726.967" x2="-1293.2609" y2="3821.1448" gradientTransform="matrix(1 0 0 1 1427.6788 -3617.5994)">
					<stop  offset="0" style="stop-color:#D05234"/>
					<stop  offset="1" style="stop-color:#9F3824"/>
				</linearGradient>
				<path class="st24" d="M127.2,161c0.8-3.5,1.5-7,2-10.6c0.4-3.6,0.7-7.2,0.8-10.8c0.4-14.5-2.4-29.3-7.6-43.3l20.6-8.9
					c7,16.1,11.3,33.9,11.8,52.1c0.1,4.6,0,9.1-0.4,13.7c-0.4,4.6-1,9.1-1.9,13.6c-0.1,0.6-3,12.6-3.1,13.2
					c-10.4,11-20.7,7.8-35.4,12.1c2.1-3.5,4.1-7.1,5.9-10.8C123,174.7,125.5,168,127.2,161z"/>
				<g>
					<g>
						<g>
							<g>
								<defs>
									<path id="SVGID_30_" d="M133.9,126.2l-30.6-3.6c-2.2-0.3-3.7-2.2-3.5-4.4l7.5-63.8c0.3-2.2,2.2-3.7,4.4-3.5l30.6,3.6
										c2.2,0.3,3.7,2.2,3.5,4.4l-7.5,63.8C138,124.9,136.1,126.4,133.9,126.2z"/>
								</defs>
								<clipPath id="SVGID_31_">
									<use xlink:href="#SVGID_30_"  style="overflow:visible;"/>
								</clipPath>
								<polygon class="st25" points="141.8,50.7 143,52.2 99.6,86.6 99.6,50.7 								"/>
							</g>
							<g>
								<defs>
									<path id="SVGID_32_" d="M133.9,126.2l-30.6-3.6c-2.2-0.3-3.7-2.2-3.5-4.4l7.5-63.8c0.3-2.2,2.2-3.7,4.4-3.5l30.6,3.6
										c2.2,0.3,3.7,2.2,3.5,4.4l-7.5,63.8C138,124.9,136.1,126.4,133.9,126.2z"/>
								</defs>
								<clipPath id="SVGID_33_">
									<use xlink:href="#SVGID_32_"  style="overflow:visible;"/>
								</clipPath>
								<polygon class="st26" points="143,52.2 143.9,53.3 99.6,88.4 99.6,86.6 								"/>
							</g>
							<g>
								<defs>
									<path id="SVGID_34_" d="M133.9,126.2l-30.6-3.6c-2.2-0.3-3.7-2.2-3.5-4.4l7.5-63.8c0.3-2.2,2.2-3.7,4.4-3.5l30.6,3.6
										c2.2,0.3,3.7,2.2,3.5,4.4l-7.5,63.8C138,124.9,136.1,126.4,133.9,126.2z"/>
								</defs>
								<clipPath id="SVGID_35_">
									<use xlink:href="#SVGID_34_"  style="overflow:visible;"/>
								</clipPath>
								<polygon class="st27" points="143.9,53.3 144.8,54.4 99.6,90.2 99.6,88.4 								"/>
							</g>
							<g>
								<defs>
									<path id="SVGID_36_" d="M133.9,126.2l-30.6-3.6c-2.2-0.3-3.7-2.2-3.5-4.4l7.5-63.8c0.3-2.2,2.2-3.7,4.4-3.5l30.6,3.6
										c2.2,0.3,3.7,2.2,3.5,4.4l-7.5,63.8C138,124.9,136.1,126.4,133.9,126.2z"/>
								</defs>
								<clipPath id="SVGID_37_">
									<use xlink:href="#SVGID_36_"  style="overflow:visible;"/>
								</clipPath>
								<polygon class="st28" points="144.8,54.4 145.6,55.5 99.6,92 99.6,90.2 								"/>
							</g>
							<g>
								<defs>
									<path id="SVGID_38_" d="M133.9,126.2l-30.6-3.6c-2.2-0.3-3.7-2.2-3.5-4.4l7.5-63.8c0.3-2.2,2.2-3.7,4.4-3.5l30.6,3.6
										c2.2,0.3,3.7,2.2,3.5,4.4l-7.5,63.8C138,124.9,136.1,126.4,133.9,126.2z"/>
								</defs>
								<clipPath id="SVGID_39_">
									<use xlink:href="#SVGID_38_"  style="overflow:visible;"/>
								</clipPath>
								<polygon class="st29" points="145.6,55.5 146,55.9 146,57.1 99.6,93.7 99.6,92 								"/>
							</g>
							<g>
								<defs>
									<path id="SVGID_40_" d="M133.9,126.2l-30.6-3.6c-2.2-0.3-3.7-2.2-3.5-4.4l7.5-63.8c0.3-2.2,2.2-3.7,4.4-3.5l30.6,3.6
										c2.2,0.3,3.7,2.2,3.5,4.4l-7.5,63.8C138,124.9,136.1,126.4,133.9,126.2z"/>
								</defs>
								<clipPath id="SVGID_41_">
									<use xlink:href="#SVGID_40_"  style="overflow:visible;"/>
								</clipPath>
								<polygon class="st30" points="146,58.8 99.6,95.5 99.6,93.7 146,57.1 								"/>
							</g>
							<g>
								<defs>
									<path id="SVGID_42_" d="M133.9,126.2l-30.6-3.6c-2.2-0.3-3.7-2.2-3.5-4.4l7.5-63.8c0.3-2.2,2.2-3.7,4.4-3.5l30.6,3.6
										c2.2,0.3,3.7,2.2,3.5,4.4l-7.5,63.8C138,124.9,136.1,126.4,133.9,126.2z"/>
								</defs>
								<clipPath id="SVGID_43_">
									<use xlink:href="#SVGID_42_"  style="overflow:visible;"/>
								</clipPath>
								<polygon class="st31" points="146,60.6 99.6,97.3 99.6,95.5 146,58.8 								"/>
							</g>
							<g>
								<defs>
									<path id="SVGID_44_" d="M133.9,126.2l-30.6-3.6c-2.2-0.3-3.7-2.2-3.5-4.4l7.5-63.8c0.3-2.2,2.2-3.7,4.4-3.5l30.6,3.6
										c2.2,0.3,3.7,2.2,3.5,4.4l-7.5,63.8C138,124.9,136.1,126.4,133.9,126.2z"/>
								</defs>
								<clipPath id="SVGID_45_">
									<use xlink:href="#SVGID_44_"  style="overflow:visible;"/>
								</clipPath>
								<polygon class="st32" points="146,62.4 99.6,99.1 99.6,97.3 146,60.6 								"/>
							</g>
							<g>
								<defs>
									<path id="SVGID_46_" d="M133.9,126.2l-30.6-3.6c-2.2-0.3-3.7-2.2-3.5-4.4l7.5-63.8c0.3-2.2,2.2-3.7,4.4-3.5l30.6,3.6
										c2.2,0.3,3.7,2.2,3.5,4.4l-7.5,63.8C138,124.9,136.1,126.4,133.9,126.2z"/>
								</defs>
								<clipPath id="SVGID_47_">
									<use xlink:href="#SVGID_46_"  style="overflow:visible;"/>
								</clipPath>
								<polygon class="st33" points="146,64.2 99.6,100.9 99.6,99.1 146,62.4 								"/>
							</g>
							<g>
								<defs>
									<path id="SVGID_48_" d="M133.9,126.2l-30.6-3.6c-2.2-0.3-3.7-2.2-3.5-4.4l7.5-63.8c0.3-2.2,2.2-3.7,4.4-3.5l30.6,3.6
										c2.2,0.3,3.7,2.2,3.5,4.4l-7.5,63.8C138,124.9,136.1,126.4,133.9,126.2z"/>
								</defs>
								<clipPath id="SVGID_49_">
									<use xlink:href="#SVGID_48_"  style="overflow:visible;"/>
								</clipPath>
								<polygon class="st34" points="146,66 99.6,102.7 99.6,100.9 146,64.2 								"/>
							</g>
							<g>
								<defs>
									<path id="SVGID_50_" d="M133.9,126.2l-30.6-3.6c-2.2-0.3-3.7-2.2-3.5-4.4l7.5-63.8c0.3-2.2,2.2-3.7,4.4-3.5l30.6,3.6
										c2.2,0.3,3.7,2.2,3.5,4.4l-7.5,63.8C138,124.9,136.1,126.4,133.9,126.2z"/>
								</defs>
								<clipPath id="SVGID_51_">
									<use xlink:href="#SVGID_50_"  style="overflow:visible;"/>
								</clipPath>
								<polygon class="st35" points="146,67.8 99.6,104.5 99.6,102.7 146,66 								"/>
							</g>
							<g>
								<defs>
									<path id="SVGID_52_" d="M133.9,126.2l-30.6-3.6c-2.2-0.3-3.7-2.2-3.5-4.4l7.5-63.8c0.3-2.2,2.2-3.7,4.4-3.5l30.6,3.6
										c2.2,0.3,3.7,2.2,3.5,4.4l-7.5,63.8C138,124.9,136.1,126.4,133.9,126.2z"/>
								</defs>
								<clipPath id="SVGID_53_">
									<use xlink:href="#SVGID_52_"  style="overflow:visible;"/>
								</clipPath>
								<polygon class="st36" points="146,69.6 99.6,106.3 99.6,104.5 146,67.8 								"/>
							</g>
							<g>
								<defs>
									<path id="SVGID_54_" d="M133.9,126.2l-30.6-3.6c-2.2-0.3-3.7-2.2-3.5-4.4l7.5-63.8c0.3-2.2,2.2-3.7,4.4-3.5l30.6,3.6
										c2.2,0.3,3.7,2.2,3.5,4.4l-7.5,63.8C138,124.9,136.1,126.4,133.9,126.2z"/>
								</defs>
								<clipPath id="SVGID_55_">
									<use xlink:href="#SVGID_54_"  style="overflow:visible;"/>
								</clipPath>
								<polygon class="st37" points="146,71.3 99.6,108 99.6,106.3 146,69.6 								"/>
							</g>
							<g>
								<defs>
									<path id="SVGID_56_" d="M133.9,126.2l-30.6-3.6c-2.2-0.3-3.7-2.2-3.5-4.4l7.5-63.8c0.3-2.2,2.2-3.7,4.4-3.5l30.6,3.6
										c2.2,0.3,3.7,2.2,3.5,4.4l-7.5,63.8C138,124.9,136.1,126.4,133.9,126.2z"/>
								</defs>
								<clipPath id="SVGID_57_">
									<use xlink:href="#SVGID_56_"  style="overflow:visible;"/>
								</clipPath>
								<polygon class="st38" points="146,73.1 99.6,109.8 99.6,108 146,71.3 								"/>
							</g>
							<g>
								<defs>
									<path id="SVGID_58_" d="M133.9,126.2l-30.6-3.6c-2.2-0.3-3.7-2.2-3.5-4.4l7.5-63.8c0.3-2.2,2.2-3.7,4.4-3.5l30.6,3.6
										c2.2,0.3,3.7,2.2,3.5,4.4l-7.5,63.8C138,124.9,136.1,126.4,133.9,126.2z"/>
								</defs>
								<clipPath id="SVGID_59_">
									<use xlink:href="#SVGID_58_"  style="overflow:visible;"/>
								</clipPath>
								<polygon class="st39" points="146,74.9 99.6,111.6 99.6,109.8 146,73.1 								"/>
							</g>
							<g>
								<defs>
									<path id="SVGID_60_" d="M133.9,126.2l-30.6-3.6c-2.2-0.3-3.7-2.2-3.5-4.4l7.5-63.8c0.3-2.2,2.2-3.7,4.4-3.5l30.6,3.6
										c2.2,0.3,3.7,2.2,3.5,4.4l-7.5,63.8C138,124.9,136.1,126.4,133.9,126.2z"/>
								</defs>
								<clipPath id="SVGID_61_">
									<use xlink:href="#SVGID_60_"  style="overflow:visible;"/>
								</clipPath>
								<polygon class="st40" points="146,76.7 99.6,113.4 99.6,111.6 146,74.9 								"/>
							</g>
							<g>
								<defs>
									<path id="SVGID_62_" d="M133.9,126.2l-30.6-3.6c-2.2-0.3-3.7-2.2-3.5-4.4l7.5-63.8c0.3-2.2,2.2-3.7,4.4-3.5l30.6,3.6
										c2.2,0.3,3.7,2.2,3.5,4.4l-7.5,63.8C138,124.9,136.1,126.4,133.9,126.2z"/>
								</defs>
								<clipPath id="SVGID_63_">
									<use xlink:href="#SVGID_62_"  style="overflow:visible;"/>
								</clipPath>
								<polygon class="st41" points="146,78.5 99.6,115.2 99.6,113.4 146,76.7 								"/>
							</g>
							<g>
								<defs>
									<path id="SVGID_64_" d="M133.9,126.2l-30.6-3.6c-2.2-0.3-3.7-2.2-3.5-4.4l7.5-63.8c0.3-2.2,2.2-3.7,4.4-3.5l30.6,3.6
										c2.2,0.3,3.7,2.2,3.5,4.4l-7.5,63.8C138,124.9,136.1,126.4,133.9,126.2z"/>
								</defs>
								<clipPath id="SVGID_65_">
									<use xlink:href="#SVGID_64_"  style="overflow:visible;"/>
								</clipPath>
								<polygon class="st42" points="146,80.3 99.6,117 99.6,115.2 146,78.5 								"/>
							</g>
							<g>
								<defs>
									<path id="SVGID_66_" d="M133.9,126.2l-30.6-3.6c-2.2-0.3-3.7-2.2-3.5-4.4l7.5-63.8c0.3-2.2,2.2-3.7,4.4-3.5l30.6,3.6
										c2.2,0.3,3.7,2.2,3.5,4.4l-7.5,63.8C138,124.9,136.1,126.4,133.9,126.2z"/>
								</defs>
								<clipPath id="SVGID_67_">
									<use xlink:href="#SVGID_66_"  style="overflow:visible;"/>
								</clipPath>
								<polygon class="st43" points="146,82.1 99.6,118.8 99.6,117 146,80.3 								"/>
							</g>
							<g>
								<defs>
									<path id="SVGID_68_" d="M133.9,126.2l-30.6-3.6c-2.2-0.3-3.7-2.2-3.5-4.4l7.5-63.8c0.3-2.2,2.2-3.7,4.4-3.5l30.6,3.6
										c2.2,0.3,3.7,2.2,3.5,4.4l-7.5,63.8C138,124.9,136.1,126.4,133.9,126.2z"/>
								</defs>
								<clipPath id="SVGID_69_">
									<use xlink:href="#SVGID_68_"  style="overflow:visible;"/>
								</clipPath>
								<polygon class="st44" points="146,83.9 99.6,120.5 99.6,118.8 146,82.1 								"/>
							</g>
							<g>
								<defs>
									<path id="SVGID_70_" d="M133.9,126.2l-30.6-3.6c-2.2-0.3-3.7-2.2-3.5-4.4l7.5-63.8c0.3-2.2,2.2-3.7,4.4-3.5l30.6,3.6
										c2.2,0.3,3.7,2.2,3.5,4.4l-7.5,63.8C138,124.9,136.1,126.4,133.9,126.2z"/>
								</defs>
								<clipPath id="SVGID_71_">
									<use xlink:href="#SVGID_70_"  style="overflow:visible;"/>
								</clipPath>
								<polygon class="st45" points="146,85.6 100.1,121.9 99.6,121.2 99.6,120.5 146,83.9 								"/>
							</g>
							<g>
								<defs>
									<path id="SVGID_72_" d="M133.9,126.2l-30.6-3.6c-2.2-0.3-3.7-2.2-3.5-4.4l7.5-63.8c0.3-2.2,2.2-3.7,4.4-3.5l30.6,3.6
										c2.2,0.3,3.7,2.2,3.5,4.4l-7.5,63.8C138,124.9,136.1,126.4,133.9,126.2z"/>
								</defs>
								<clipPath id="SVGID_73_">
									<use xlink:href="#SVGID_72_"  style="overflow:visible;"/>
								</clipPath>
								<polygon class="st46" points="146,87.4 101,123 100.1,121.9 146,85.6 								"/>
							</g>
							<g>
								<defs>
									<path id="SVGID_74_" d="M133.9,126.2l-30.6-3.6c-2.2-0.3-3.7-2.2-3.5-4.4l7.5-63.8c0.3-2.2,2.2-3.7,4.4-3.5l30.6,3.6
										c2.2,0.3,3.7,2.2,3.5,4.4l-7.5,63.8C138,124.9,136.1,126.4,133.9,126.2z"/>
								</defs>
								<clipPath id="SVGID_75_">
									<use xlink:href="#SVGID_74_"  style="overflow:visible;"/>
								</clipPath>
								<polygon class="st47" points="146,89.2 101.9,124.1 101,123 146,87.4 								"/>
							</g>
							<g>
								<defs>
									<path id="SVGID_76_" d="M133.9,126.2l-30.6-3.6c-2.2-0.3-3.7-2.2-3.5-4.4l7.5-63.8c0.3-2.2,2.2-3.7,4.4-3.5l30.6,3.6
										c2.2,0.3,3.7,2.2,3.5,4.4l-7.5,63.8C138,124.9,136.1,126.4,133.9,126.2z"/>
								</defs>
								<clipPath id="SVGID_77_">
									<use xlink:href="#SVGID_76_"  style="overflow:visible;"/>
								</clipPath>
								<polygon class="st48" points="146,91 102.7,125.2 101.9,124.1 146,89.2 								"/>
							</g>
							<g>
								<defs>
									<path id="SVGID_78_" d="M133.9,126.2l-30.6-3.6c-2.2-0.3-3.7-2.2-3.5-4.4l7.5-63.8c0.3-2.2,2.2-3.7,4.4-3.5l30.6,3.6
										c2.2,0.3,3.7,2.2,3.5,4.4l-7.5,63.8C138,124.9,136.1,126.4,133.9,126.2z"/>
								</defs>
								<clipPath id="SVGID_79_">
									<use xlink:href="#SVGID_78_"  style="overflow:visible;"/>
								</clipPath>
								<polygon class="st49" points="146,92.8 103.6,126.3 102.7,125.2 146,91 								"/>
							</g>
							<g>
								<defs>
									<path id="SVGID_80_" d="M133.9,126.2l-30.6-3.6c-2.2-0.3-3.7-2.2-3.5-4.4l7.5-63.8c0.3-2.2,2.2-3.7,4.4-3.5l30.6,3.6
										c2.2,0.3,3.7,2.2,3.5,4.4l-7.5,63.8C138,124.9,136.1,126.4,133.9,126.2z"/>
								</defs>
								<clipPath id="SVGID_81_">
									<use xlink:href="#SVGID_80_"  style="overflow:visible;"/>
								</clipPath>
								<polygon class="st50" points="146,94.6 105.7,126.4 103.7,126.4 103.6,126.3 146,92.8 								"/>
							</g>
							<g>
								<defs>
									<path id="SVGID_82_" d="M133.9,126.2l-30.6-3.6c-2.2-0.3-3.7-2.2-3.5-4.4l7.5-63.8c0.3-2.2,2.2-3.7,4.4-3.5l30.6,3.6
										c2.2,0.3,3.7,2.2,3.5,4.4l-7.5,63.8C138,124.9,136.1,126.4,133.9,126.2z"/>
								</defs>
								<clipPath id="SVGID_83_">
									<use xlink:href="#SVGID_82_"  style="overflow:visible;"/>
								</clipPath>
								<polygon class="st51" points="146,96.4 108,126.4 105.7,126.4 146,94.6 								"/>
							</g>
							<g>
								<defs>
									<path id="SVGID_84_" d="M133.9,126.2l-30.6-3.6c-2.2-0.3-3.7-2.2-3.5-4.4l7.5-63.8c0.3-2.2,2.2-3.7,4.4-3.5l30.6,3.6
										c2.2,0.3,3.7,2.2,3.5,4.4l-7.5,63.8C138,124.9,136.1,126.4,133.9,126.2z"/>
								</defs>
								<clipPath id="SVGID_85_">
									<use xlink:href="#SVGID_84_"  style="overflow:visible;"/>
								</clipPath>
								<polygon class="st52" points="146,98.1 110.2,126.4 108,126.4 146,96.4 								"/>
							</g>
							<g>
								<defs>
									<path id="SVGID_86_" d="M133.9,126.2l-30.6-3.6c-2.2-0.3-3.7-2.2-3.5-4.4l7.5-63.8c0.3-2.2,2.2-3.7,4.4-3.5l30.6,3.6
										c2.2,0.3,3.7,2.2,3.5,4.4l-7.5,63.8C138,124.9,136.1,126.4,133.9,126.2z"/>
								</defs>
								<clipPath id="SVGID_87_">
									<use xlink:href="#SVGID_86_"  style="overflow:visible;"/>
								</clipPath>
								<polygon class="st53" points="146,99.9 112.5,126.4 110.2,126.4 146,98.1 								"/>
							</g>
							<g>
								<defs>
									<path id="SVGID_88_" d="M133.9,126.2l-30.6-3.6c-2.2-0.3-3.7-2.2-3.5-4.4l7.5-63.8c0.3-2.2,2.2-3.7,4.4-3.5l30.6,3.6
										c2.2,0.3,3.7,2.2,3.5,4.4l-7.5,63.8C138,124.9,136.1,126.4,133.9,126.2z"/>
								</defs>
								<clipPath id="SVGID_89_">
									<use xlink:href="#SVGID_88_"  style="overflow:visible;"/>
								</clipPath>
								<polygon class="st54" points="146,101.7 114.7,126.4 112.5,126.4 146,99.9 								"/>
							</g>
							<g>
								<defs>
									<path id="SVGID_90_" d="M133.9,126.2l-30.6-3.6c-2.2-0.3-3.7-2.2-3.5-4.4l7.5-63.8c0.3-2.2,2.2-3.7,4.4-3.5l30.6,3.6
										c2.2,0.3,3.7,2.2,3.5,4.4l-7.5,63.8C138,124.9,136.1,126.4,133.9,126.2z"/>
								</defs>
								<clipPath id="SVGID_91_">
									<use xlink:href="#SVGID_90_"  style="overflow:visible;"/>
								</clipPath>
								<polygon class="st55" points="146,103.5 117,126.4 114.7,126.4 146,101.7 								"/>
							</g>
							<g>
								<defs>
									<path id="SVGID_92_" d="M133.9,126.2l-30.6-3.6c-2.2-0.3-3.7-2.2-3.5-4.4l7.5-63.8c0.3-2.2,2.2-3.7,4.4-3.5l30.6,3.6
										c2.2,0.3,3.7,2.2,3.5,4.4l-7.5,63.8C138,124.9,136.1,126.4,133.9,126.2z"/>
								</defs>
								<clipPath id="SVGID_93_">
									<use xlink:href="#SVGID_92_"  style="overflow:visible;"/>
								</clipPath>
								<polygon class="st56" points="146,105.3 119.3,126.4 117,126.4 146,103.5 								"/>
							</g>
							<g>
								<defs>
									<path id="SVGID_94_" d="M133.9,126.2l-30.6-3.6c-2.2-0.3-3.7-2.2-3.5-4.4l7.5-63.8c0.3-2.2,2.2-3.7,4.4-3.5l30.6,3.6
										c2.2,0.3,3.7,2.2,3.5,4.4l-7.5,63.8C138,124.9,136.1,126.4,133.9,126.2z"/>
								</defs>
								<clipPath id="SVGID_95_">
									<use xlink:href="#SVGID_94_"  style="overflow:visible;"/>
								</clipPath>
								<polygon class="st57" points="146,107.1 121.5,126.4 119.3,126.4 146,105.3 								"/>
							</g>
							<g>
								<defs>
									<path id="SVGID_96_" d="M133.9,126.2l-30.6-3.6c-2.2-0.3-3.7-2.2-3.5-4.4l7.5-63.8c0.3-2.2,2.2-3.7,4.4-3.5l30.6,3.6
										c2.2,0.3,3.7,2.2,3.5,4.4l-7.5,63.8C138,124.9,136.1,126.4,133.9,126.2z"/>
								</defs>
								<clipPath id="SVGID_97_">
									<use xlink:href="#SVGID_96_"  style="overflow:visible;"/>
								</clipPath>
								<polygon class="st58" points="146,108.9 123.8,126.4 121.5,126.4 146,107.1 								"/>
							</g>
							<g>
								<defs>
									<path id="SVGID_98_" d="M133.9,126.2l-30.6-3.6c-2.2-0.3-3.7-2.2-3.5-4.4l7.5-63.8c0.3-2.2,2.2-3.7,4.4-3.5l30.6,3.6
										c2.2,0.3,3.7,2.2,3.5,4.4l-7.5,63.8C138,124.9,136.1,126.4,133.9,126.2z"/>
								</defs>
								<clipPath id="SVGID_99_">
									<use xlink:href="#SVGID_98_"  style="overflow:visible;"/>
								</clipPath>
								<polygon class="st59" points="146,110.7 126,126.4 123.8,126.4 146,108.9 								"/>
							</g>
							<g>
								<defs>
									<path id="SVGID_100_" d="M133.9,126.2l-30.6-3.6c-2.2-0.3-3.7-2.2-3.5-4.4l7.5-63.8c0.3-2.2,2.2-3.7,4.4-3.5l30.6,3.6
										c2.2,0.3,3.7,2.2,3.5,4.4l-7.5,63.8C138,124.9,136.1,126.4,133.9,126.2z"/>
								</defs>
								<clipPath id="SVGID_101_">
									<use xlink:href="#SVGID_100_"  style="overflow:visible;"/>
								</clipPath>
								<polygon class="st60" points="146,112.4 128.3,126.4 126,126.4 146,110.7 								"/>
							</g>
							<g>
								<defs>
									<path id="SVGID_102_" d="M133.9,126.2l-30.6-3.6c-2.2-0.3-3.7-2.2-3.5-4.4l7.5-63.8c0.3-2.2,2.2-3.7,4.4-3.5l30.6,3.6
										c2.2,0.3,3.7,2.2,3.5,4.4l-7.5,63.8C138,124.9,136.1,126.4,133.9,126.2z"/>
								</defs>
								<clipPath id="SVGID_103_">
									<use xlink:href="#SVGID_102_"  style="overflow:visible;"/>
								</clipPath>
								<polygon class="st61" points="146,114.2 130.6,126.4 128.3,126.4 146,112.4 								"/>
							</g>
							<g>
								<defs>
									<path id="SVGID_104_" d="M133.9,126.2l-30.6-3.6c-2.2-0.3-3.7-2.2-3.5-4.4l7.5-63.8c0.3-2.2,2.2-3.7,4.4-3.5l30.6,3.6
										c2.2,0.3,3.7,2.2,3.5,4.4l-7.5,63.8C138,124.9,136.1,126.4,133.9,126.2z"/>
								</defs>
								<clipPath id="SVGID_105_">
									<use xlink:href="#SVGID_104_"  style="overflow:visible;"/>
								</clipPath>
								<polygon class="st62" points="146,116 132.8,126.4 130.6,126.4 146,114.2 								"/>
							</g>
							<g>
								<defs>
									<path id="SVGID_106_" d="M133.9,126.2l-30.6-3.6c-2.2-0.3-3.7-2.2-3.5-4.4l7.5-63.8c0.3-2.2,2.2-3.7,4.4-3.5l30.6,3.6
										c2.2,0.3,3.7,2.2,3.5,4.4l-7.5,63.8C138,124.9,136.1,126.4,133.9,126.2z"/>
								</defs>
								<clipPath id="SVGID_107_">
									<use xlink:href="#SVGID_106_"  style="overflow:visible;"/>
								</clipPath>
								<polygon class="st63" points="146,117.8 135.1,126.4 132.8,126.4 146,116 								"/>
							</g>
							<g>
								<defs>
									<path id="SVGID_108_" d="M133.9,126.2l-30.6-3.6c-2.2-0.3-3.7-2.2-3.5-4.4l7.5-63.8c0.3-2.2,2.2-3.7,4.4-3.5l30.6,3.6
										c2.2,0.3,3.7,2.2,3.5,4.4l-7.5,63.8C138,124.9,136.1,126.4,133.9,126.2z"/>
								</defs>
								<clipPath id="SVGID_109_">
									<use xlink:href="#SVGID_108_"  style="overflow:visible;"/>
								</clipPath>
								<polygon class="st64" points="146,119.6 137.3,126.4 135.1,126.4 146,117.8 								"/>
							</g>
							<g>
								<defs>
									<path id="SVGID_110_" d="M133.9,126.2l-30.6-3.6c-2.2-0.3-3.7-2.2-3.5-4.4l7.5-63.8c0.3-2.2,2.2-3.7,4.4-3.5l30.6,3.6
										c2.2,0.3,3.7,2.2,3.5,4.4l-7.5,63.8C138,124.9,136.1,126.4,133.9,126.2z"/>
								</defs>
								<clipPath id="SVGID_111_">
									<use xlink:href="#SVGID_110_"  style="overflow:visible;"/>
								</clipPath>
								<polygon class="st65" points="146,121.4 139.6,126.4 137.3,126.4 146,119.6 								"/>
							</g>
							<g>
								<defs>
									<path id="SVGID_112_" d="M133.9,126.2l-30.6-3.6c-2.2-0.3-3.7-2.2-3.5-4.4l7.5-63.8c0.3-2.2,2.2-3.7,4.4-3.5l30.6,3.6
										c2.2,0.3,3.7,2.2,3.5,4.4l-7.5,63.8C138,124.9,136.1,126.4,133.9,126.2z"/>
								</defs>
								<clipPath id="SVGID_113_">
									<use xlink:href="#SVGID_112_"  style="overflow:visible;"/>
								</clipPath>
								<polygon class="st66" points="146,123.2 141.9,126.4 139.6,126.4 146,121.4 								"/>
							</g>
							<g>
								<defs>
									<path id="SVGID_114_" d="M133.9,126.2l-30.6-3.6c-2.2-0.3-3.7-2.2-3.5-4.4l7.5-63.8c0.3-2.2,2.2-3.7,4.4-3.5l30.6,3.6
										c2.2,0.3,3.7,2.2,3.5,4.4l-7.5,63.8C138,124.9,136.1,126.4,133.9,126.2z"/>
								</defs>
								<clipPath id="SVGID_115_">
									<use xlink:href="#SVGID_114_"  style="overflow:visible;"/>
								</clipPath>
								<polygon class="st67" points="146,124.9 144.1,126.4 141.9,126.4 146,123.2 								"/>
							</g>
							<g>
								<defs>
									<path id="SVGID_116_" d="M133.9,126.2l-30.6-3.6c-2.2-0.3-3.7-2.2-3.5-4.4l7.5-63.8c0.3-2.2,2.2-3.7,4.4-3.5l30.6,3.6
										c2.2,0.3,3.7,2.2,3.5,4.4l-7.5,63.8C138,124.9,136.1,126.4,133.9,126.2z"/>
								</defs>
								<clipPath id="SVGID_117_">
									<use xlink:href="#SVGID_116_"  style="overflow:visible;"/>
								</clipPath>
								<polygon class="st68" points="144.1,126.4 146,124.9 146,126.4 								"/>
							</g>
						</g>
					</g>
					
						<linearGradient id="SVGID_118_" gradientUnits="userSpaceOnUse" x1="-1949.3451" y1="-3580.2053" x2="-1971.4132" y2="-3527.9775" gradientTransform="matrix(0.9842 -0.1771 -0.1771 -0.9842 1420.2019 -3760.0903)">
						<stop  offset="0" style="stop-color:#0B4BA9"/>
						<stop  offset="1" style="stop-color:#256CED"/>
					</linearGradient>
					<polygon class="st69" points="138.7,119 100.3,114.5 106.8,58.8 145.2,63.3 					"/>
					<circle class="st70" cx="119" cy="120.6" r="2.6"/>
					<g>
						<path class="st70" d="M130.4,57.7L130.4,57.7l-8-0.9c-0.2,0-0.3-0.2-0.3-0.4s0.2-0.3,0.4-0.3l7.9,0.9c0.2,0,0.3,0.2,0.3,0.4
							C130.8,57.6,130.6,57.7,130.4,57.7z"/>
					</g>
					
						<linearGradient id="SVGID_119_" gradientUnits="userSpaceOnUse" x1="-1959.7609" y1="-3575.999" x2="-2005.8302" y2="-3529.9297" gradientTransform="matrix(0.9842 -0.1771 -0.1771 -0.9842 1420.2019 -3760.0903)">
						<stop  offset="0" style="stop-color:#0B4BA9"/>
						<stop  offset="1" style="stop-color:#256CED"/>
					</linearGradient>
					<polygon class="st71" points="100.3,114.5 138.7,119 141.7,93.3 105.7,68.3 					"/>
				</g>
				<g id="brand_x2F_ico_x2F_unlimited-2.0-copy_2_">
					<g id="Clip-2_2_">
						<path id="path-2_1_" class="st72" d="M115.3,80.6c-0.2,0-0.5,0-0.7,0l0,0c-1.4,0-2.9,0.5-4.1,1.4l0,0c-1.2,0.9-2,2-2.3,3.4
							l0,0c-0.1,0.3-0.1,0.6-0.2,0.9l0,0l0,0c-0.2,1.7,0.3,3.4,1.5,4.8l0,0c1.2,1.4,2.7,2.2,4.4,2.4l0,0c1.5,0.2,3.1-0.2,4.4-1.1
							l0,0l3.3-2.4c0.2-0.1,0.3-0.3,0.3-0.5l0,0c0-0.2,0-0.4-0.2-0.6l0,0c-0.1-0.2-0.3-0.3-0.6-0.3l0,0c-0.2,0-0.4,0-0.6,0.1l0,0
							l-3.4,2.5l0,0c-1,0.6-2.1,0.9-3.1,0.8l0,0c-1.2-0.1-2.4-0.8-3.3-1.9l0,0c-0.8-1-1.2-2.1-1.2-3.3l0,0c0-0.1,0-0.3,0-0.4l0,0
							c0.2-1.3,0.8-2.5,1.9-3.3l0,0c1.1-0.8,2.3-1.2,3.6-1.1l0,0h0.1c1.3,0.2,2.5,0.9,3.6,2.1l0,0l7.2,8.4c0.9,1,2.3,2.2,4.6,2.7
							l0,0h0.1c1.6,0.2,3.3-0.3,4.7-1.4l0,0c1.4-1.1,2.3-2.6,2.5-4.3l0,0c0.2-1.7-0.3-3.5-1.5-4.8l0,0c-1.2-1.4-2.7-2.2-4.4-2.4l0,0
							c-1.5-0.2-3.1,0.2-4.4,1.1l0,0c-0.6,0.5-1.3,0.9-1.9,1.4l0,0l-1.4,1c-0.2,0.1-0.3,0.3-0.3,0.5l0,0c0,0.2,0,0.4,0.2,0.6l0,0
							c0.1,0.2,0.3,0.3,0.5,0.3l0,0c0.2,0,0.5,0,0.7-0.2l0,0c0.3-0.2,0.6-0.4,0.9-0.6l0,0c0.8-0.6,1.6-1.2,2.5-1.8l0,0
							c1-0.7,2.1-1,3.2-0.8l0,0c1.2,0.1,2.3,0.8,3.3,1.9l0,0c0.9,1.1,1.3,2.4,1.2,3.7l0,0c-0.1,1.3-0.8,2.4-1.9,3.3l0,0l0,0l0,0
							c-1.2,0.8-2.4,1.2-3.6,1.1l0,0h-0.1c-1.3-0.2-2.5-0.9-3.6-2.1l0,0l-7.2-8.4c-0.6-0.7-1.2-1.2-1.9-1.7l0,0
							c-0.8-0.5-1.7-0.9-2.6-1l0,0L115.3,80.6L115.3,80.6z"/>
					</g>
				</g>
				
					<linearGradient id="SVGID_120_" gradientUnits="userSpaceOnUse" x1="-820.621" y1="-3778.0859" x2="-820.621" y2="-3683.9084" gradientTransform="matrix(1.0684 0.2363 0.2457 -1.1108 1946.6129 -3912.6245)">
					<stop  offset="0" style="stop-color:#D05234"/>
					<stop  offset="1" style="stop-color:#9F3824"/>
				</linearGradient>
				<path class="st73" d="M137.5,76.1c6.3,10.3,10.6,22.1,12.5,34.4l0,0c0.4,3-1.5,5.8-4.4,6.3s-5.5-1.5-6-4.4c0-0.2,0-0.4-0.1-0.6
					c-0.5-11.1-3.3-22.1-8.1-32.2l0,0c-0.8-1.8-0.1-3.9,1.6-4.8C134.7,74.1,136.6,74.6,137.5,76.1z"/>
			</g>
		</g>
		<g>
			<defs>
				<rect id="SVGID_121_" width="180" height="180"/>
			</defs>
			<clipPath id="SVGID_122_">
				<use xlink:href="#SVGID_121_"  style="overflow:visible;"/>
			</clipPath>
			<g class="st74">
				
					<linearGradient id="SVGID_123_" gradientUnits="userSpaceOnUse" x1="-952.4867" y1="-42.1658" x2="-952.4867" y2="31.2125" gradientTransform="matrix(-0.9945 0.1047 -0.1047 -0.9945 -883.2126 169.8157)">
					<stop  offset="0" style="stop-color:#FF9171"/>
					<stop  offset="1" style="stop-color:#FF638C"/>
				</linearGradient>
				<path class="st75" d="M64.5,100.1l9.7-17.3c0.7-1.2,0.3-2.8-1-3.5c-1.2-0.6-2.6-0.3-3.4,0.8L58.4,96.2c-1.2,1.6-0.8,3.9,0.9,5.1
					c1.6,1.2,3.9,0.8,5.1-0.9C64.3,100.3,64.4,100.2,64.5,100.1z"/>
				
					<linearGradient id="SVGID_124_" gradientUnits="userSpaceOnUse" x1="-952.921" y1="-42.1658" x2="-952.921" y2="31.2125" gradientTransform="matrix(-0.9945 0.1047 -0.1047 -0.9945 -883.2126 169.8157)">
					<stop  offset="0" style="stop-color:#FF9171"/>
					<stop  offset="1" style="stop-color:#FF638C"/>
				</linearGradient>
				<path class="st76" d="M65.4,109.7l10.7-16.6c0.8-1.2,0.4-2.8-0.8-3.6c-1.1-0.7-2.6-0.5-3.4,0.6l-12.4,15.4
					c-1.3,1.6-1,3.8,0.5,5.1c1.6,1.3,3.8,1,5.1-0.5C65.3,109.9,65.3,109.8,65.4,109.7z"/>
				
					<linearGradient id="SVGID_125_" gradientUnits="userSpaceOnUse" x1="-953.4417" y1="-42.1658" x2="-953.4417" y2="31.2125" gradientTransform="matrix(-0.9945 0.1047 -0.1047 -0.9945 -883.2126 169.8157)">
					<stop  offset="0" style="stop-color:#FF9171"/>
					<stop  offset="1" style="stop-color:#FF638C"/>
				</linearGradient>
				<path class="st77" d="M66.8,118.5l10.7-16.6c0.8-1.2,0.4-2.8-0.8-3.6c-1.1-0.7-2.6-0.5-3.4,0.6L61,114.3c-1.3,1.6-1,3.8,0.5,5.1
					c1.6,1.3,3.8,1,5.1-0.5C66.7,118.7,66.8,118.6,66.8,118.5z"/>
				
					<linearGradient id="SVGID_126_" gradientUnits="userSpaceOnUse" x1="-953.9205" y1="-42.1658" x2="-953.9205" y2="31.2125" gradientTransform="matrix(-0.9945 0.1047 -0.1047 -0.9945 -883.2126 169.8157)">
					<stop  offset="0" style="stop-color:#FF9171"/>
					<stop  offset="1" style="stop-color:#FF638C"/>
				</linearGradient>
				<path class="st78" d="M68.3,127.7L79,111.1c0.8-1.2,0.4-2.8-0.8-3.6c-1.1-0.7-2.6-0.5-3.4,0.6l-12.4,15.4
					c-1.3,1.6-1,3.8,0.5,5.1c1.6,1.3,3.8,1,5.1-0.5C68.2,127.9,68.2,127.8,68.3,127.7z"/>
				
					<linearGradient id="SVGID_127_" gradientUnits="userSpaceOnUse" x1="-932.4031" y1="51.1412" x2="-932.4031" y2="124.5195" gradientTransform="matrix(-1 0 0 1 -884.3719 79.6079)">
					<stop  offset="0" style="stop-color:#FF9171"/>
					<stop  offset="1" style="stop-color:#FF638C"/>
				</linearGradient>
				<path class="st79" d="M53.9,171c-0.7-2.7-1.2-5.5-1.6-8.2c-0.4-2.8-0.6-5.6-0.7-8.4c-0.3-11.3,1.9-22.8,6.1-33.8l-16.6-6.9
					c-5.6,12.6-9.1,26.4-9.5,40.6c-0.1,3.5,0,7.1,0.3,10.7c0.3,3.6,0.8,7.1,1.5,10.6c0.1,0.4,1.3,4.8,1.4,5.2
					c8.4,8.6,17.8,11.1,29.7,14.4c-1.7-2.8-3.3-5.6-4.7-8.4C57.2,181.7,55.3,176.4,53.9,171z"/>
				<g>
					<path class="st80" d="M47.9,143.8l23.9-2.8c1.7-0.2,2.9-1.7,2.7-3.4l-5.8-49.7c-0.2-1.7-1.7-2.9-3.4-2.7L41.4,88
						c-1.7,0.2-2.9,1.7-2.7,3.4l5.8,49.7C44.7,142.8,46.2,144,47.9,143.8z"/>
					
						<linearGradient id="SVGID_128_" gradientUnits="userSpaceOnUse" x1="-944.6375" y1="-31.9432" x2="-961.8318" y2="8.75" gradientTransform="matrix(-0.9853 -0.1865 0.1734 -1.0152 -878.7244 -78.606)">
						<stop  offset="0" style="stop-color:#1D83E5"/>
						<stop  offset="1" style="stop-color:#1D92E3"/>
					</linearGradient>
					<polygon class="st81" points="44.1,138.2 74.1,134.7 68.9,90 38.9,93.5 					"/>
					<path class="st82" d="M50.6,90.2"/>
					<path class="st82" d="M56.8,89.5"/>
					
						<linearGradient id="SVGID_129_" gradientUnits="userSpaceOnUse" x1="-968.6493" y1="-39.9286" x2="-930.8521" y2="4.7993" gradientTransform="matrix(-0.9842 -0.1771 0.1771 -0.9842 -876.895 -62.8831)">
						<stop  offset="0" style="stop-color:#1E74E7"/>
						<stop  offset="1" style="stop-color:#2261EA"/>
					</linearGradient>
					<polygon class="st83" points="74.1,134.7 44.1,138.2 39.3,96.6 72.3,119 					"/>
				</g>
				<g id="brand_x2F_ico_x2F_unlimited-2.0-copy_3_">
					<g id="Clip-2_3_">
						<path id="path-2_3_" class="st72" d="M50.4,111.5c-0.2,0-0.4,0.1-0.5,0.1l0,0c-1,0.3-2,0.9-2.7,1.7l0,0
							c-0.7,0.8-1.1,1.8-1.1,2.8l0,0c0,0.2,0,0.5,0,0.7l0,0l0,0c0.2,1.3,0.8,2.4,1.9,3.2l0,0c1.1,0.8,2.3,1.1,3.6,1l0,0
							c1.1-0.1,2.2-0.7,3-1.5l0,0l2-2.3c0.1-0.1,0.1-0.3,0.1-0.4l0,0c0-0.2-0.1-0.3-0.2-0.4l0,0c-0.1-0.1-0.3-0.1-0.5-0.1l0,0
							c-0.2,0-0.3,0.1-0.4,0.2l0,0l-2.1,2.4l0,0c-0.6,0.6-1.3,1-2.1,1.1l0,0c-0.9,0.1-1.8-0.2-2.7-0.8l0,0c-0.8-0.6-1.3-1.3-1.4-2.2
							l0,0c0-0.1,0-0.2,0-0.3l0,0c-0.1-1,0.2-1.9,0.9-2.7l0,0c0.7-0.8,1.5-1.3,2.4-1.4l0,0h0.1c1-0.1,2,0.2,2.9,0.9l0,0l6.6,4.9
							c0.8,0.6,2.1,1.2,3.8,1.2l0,0h0.1c1.2-0.1,2.3-0.8,3.2-1.8l0,0c0.9-1,1.3-2.3,1.1-3.5l0,0c-0.1-1.3-0.8-2.4-1.9-3.2l0,0
							c-1.1-0.8-2.3-1.1-3.6-1l0,0c-1.1,0.1-2.2,0.7-3,1.5l0,0c-0.4,0.4-0.8,0.9-1.2,1.3l0,0l-0.8,1c-0.1,0.1-0.2,0.3-0.2,0.4l0,0
							c0,0.2,0.1,0.3,0.2,0.4l0,0c0.1,0.1,0.3,0.1,0.4,0.1l0,0c0.2,0,0.3-0.1,0.4-0.2l0,0c0.2-0.2,0.3-0.4,0.5-0.6l0,0
							c0.5-0.6,1-1.1,1.5-1.7l0,0c0.6-0.7,1.4-1,2.2-1.1l0,0c0.9-0.1,1.8,0.2,2.7,0.8l0,0c0.8,0.6,1.4,1.5,1.5,2.5l0,0
							c0.1,1-0.2,1.9-0.8,2.7l0,0l0,0l0,0c-0.7,0.8-1.5,1.3-2.4,1.4l0,0h-0.1c-1,0.1-2-0.2-2.9-1l0,0l-6.6-4.9
							c-0.5-0.4-1.1-0.7-1.7-0.9l0,0C51.9,111.6,51.2,111.5,50.4,111.5L50.4,111.5L50.4,111.5L50.4,111.5z"/>
					</g>
				</g>
				
					<linearGradient id="SVGID_130_" gradientUnits="userSpaceOnUse" x1="-927.613" y1="-42.1658" x2="-927.613" y2="31.2125" gradientTransform="matrix(-0.9945 0.1047 -0.1047 -0.9945 -883.2126 169.8157)">
					<stop  offset="0" style="stop-color:#FF9171"/>
					<stop  offset="1" style="stop-color:#FF638C"/>
				</linearGradient>
				<path class="st84" d="M47.8,105.4c-5.3,6.5-9.3,14.2-11.7,22.5l0,0c-0.6,2,0.6,4,2.6,4.6s4-0.6,4.6-2.6c0-0.1,0.1-0.3,0.1-0.4
					c1.3-7.5,4.1-14.8,8.4-21.3l0,0c0.7-1.1,0.4-2.7-0.7-3.4C50,104.2,48.6,104.4,47.8,105.4z"/>
			</g>
		</g>
		<g>
			<defs>
				<rect id="SVGID_131_" width="180" height="180"/>
			</defs>
			<clipPath id="SVGID_132_">
				<use xlink:href="#SVGID_131_"  style="overflow:visible;"/>
			</clipPath>
			<g class="st85">
				
					<rect x="35.5" y="38.8" transform="matrix(0.526 -0.8505 0.8505 0.526 -13.9184 70.7482)" class="st1" width="42.1" height="18.2"/>
				
					<linearGradient id="SVGID_133_" gradientUnits="userSpaceOnUse" x1="-13.855" y1="194.3481" x2="-4.1254" y2="199.9655" gradientTransform="matrix(0.8505 0.526 0.526 -0.8505 -39.5989 220.4095)">
					<stop  offset="0" style="stop-color:#25954A"/>
					<stop  offset="0" style="stop-color:#25954A"/>
					<stop  offset="1" style="stop-color:#2EA65C"/>
				</linearGradient>
				<circle class="st86" cx="56.5" cy="48" r="5.6"/>
				
					<linearGradient id="SVGID_134_" gradientUnits="userSpaceOnUse" x1="-11.1816" y1="186.5247" x2="-6.8212" y2="186.5247" gradientTransform="matrix(0.8505 0.526 0.526 -0.8505 -39.5989 220.4095)">
					<stop  offset="0" style="stop-color:#25954A"/>
					<stop  offset="0" style="stop-color:#25954A"/>
					<stop  offset="1" style="stop-color:#2EA65C"/>
				</linearGradient>
				<circle class="st87" cx="50.8" cy="57" r="2.2"/>
				
					<linearGradient id="SVGID_135_" gradientUnits="userSpaceOnUse" x1="-11.1695" y1="208.1341" x2="-6.8254" y2="207.754" gradientTransform="matrix(0.8505 0.526 0.526 -0.8505 -39.5989 220.4095)">
					<stop  offset="0" style="stop-color:#25954A"/>
					<stop  offset="1" style="stop-color:#2EA65C"/>
				</linearGradient>
				<circle class="st88" cx="62.1" cy="38.8" r="2.2"/>
			</g>
		</g>
	</g>
</g>
</svg>
